<?xml version="1.0" encoding="UTF-8" standalone="no"?>
<svg
   viewBox="0 0 330 330"
   fill="#d69d36"
   version="1.1"
   id="svg6"
   sodipodi:docname="vinyl2.svg"
   width="330"
   height="330"
   inkscape:version="1.4 (86a8ad7, 2024-10-11)"
   xml:space="preserve"
   xmlns:inkscape="http://www.inkscape.org/namespaces/inkscape"
   xmlns:sodipodi="http://sodipodi.sourceforge.net/DTD/sodipodi-0.dtd"
   xmlns="http://www.w3.org/2000/svg"
   xmlns:svg="http://www.w3.org/2000/svg"><defs
     id="defs6" /><sodipodi:namedview
     id="namedview6"
     pagecolor="#505050"
     bordercolor="#eeeeee"
     borderopacity="1"
     inkscape:showpageshadow="0"
     inkscape:pageopacity="0"
     inkscape:pagecheckerboard="0"
     inkscape:deskcolor="#505050"
     inkscape:zoom="1.4142136"
     inkscape:cx="149.90663"
     inkscape:cy="162.63456"
     inkscape:window-width="1721"
     inkscape:window-height="982"
     inkscape:window-x="24"
     inkscape:window-y="111"
     inkscape:window-maximized="0"
     inkscape:current-layer="g1"
     showguides="false" /><g
     stroke="#d69d36"
     stroke-width="4"
     fill="none"
     id="g5"
     transform="translate(-70,-2)"
     style="fill:#000000;fill-opacity:1;stroke:#000000;stroke-opacity:1"><circle
       cx="235"
       cy="167"
       r="163"
       id="circle1"
       style="fill:#000000;fill-opacity:1;stroke:#000000;stroke-opacity:1" /><circle
       cx="235"
       cy="167"
       r="129"
       id="circle2"
       style="fill:#000000;fill-opacity:1;stroke:#000000;stroke-opacity:1" /><circle
       cx="235"
       cy="167"
       r="98"
       id="circle3"
       style="fill:#000000;fill-opacity:1;stroke:#000000;stroke-opacity:1" /><circle
       cx="235"
       cy="167"
       r="64"
       id="circle4"
       style="fill:#000000;fill-opacity:1;stroke:#000000;stroke-opacity:1" /><circle
       cx="235"
       cy="167"
       r="33"
       id="circle5"
       style="fill:#000000;fill-opacity:1;stroke:#000000;stroke-opacity:1" /><path
       d="m 235,4 v 130 m 0,66 V 330 M 120,52 l 92,92 m 46,46 92,92 M 72,167 h 130 m 66,0 h 130 m -278,115 92,-92 m 46,-46 92,-92"
       id="path5"
       style="fill:#000000;fill-opacity:1;stroke:#000000;stroke-opacity:1" /></g><circle
     style="fill:#887880;fill-opacity:1;stroke:#383838;stroke-width:1.40311"
     id="path1"
     cx="165"
     cy="165"
     r="76.395531" /><g
     id="g1"
     transform="matrix(4.5889633,0,0,4.5889633,159.53971,200.01909)"><g
       id="g10"
       transform="matrix(9.8071171,0,0,10.1173,-22.960151,-33.76002)"
       style="stroke:#000000;stroke-opacity:0;fill:#000000;fill-opacity:0.18487395"><path
         fill="#000000"
         d="M 1.993,1.107 C 2.05,1.111 2.108,1.112 2.164,1.109 2.534,1.011 2.878,1.126 3.246,1.161 3.286,1.158 3.326,1.153 3.366,1.148 3.291,1.099 3.212,1.057 3.129,1.02 3.087,1.018 3.046,1.014 3.004,1.009 2.782,0.973 2.573,0.953 2.335,0.979 2.263,0.984 2.19,0.987 2.118,0.989 2.046,0.99 1.974,0.99 1.901,0.988 1.893,0.987 1.884,0.987 1.875,0.987 1.809,1.012 1.743,1.042 1.681,1.075 1.728,1.083 1.774,1.089 1.822,1.094 1.878,1.098 1.936,1.103 1.993,1.107 Z"
         id="path1-7"
         style="stroke:#000000;stroke-opacity:0;fill:#000000;fill-opacity:0.18487395" /><path
         fill="#000000"
         d="M 1.734,1.444 C 1.785,1.427 1.836,1.418 1.882,1.407 2.344,1.24 2.839,1.297 3.322,1.343 3.4,1.335 3.479,1.325 3.545,1.311 3.555,1.31 3.564,1.308 3.572,1.306 3.544,1.28 3.514,1.255 3.483,1.232 3.427,1.236 3.37,1.24 3.313,1.243 3.258,1.246 3.208,1.242 3.156,1.237 2.762,1.164 2.344,1.221 1.946,1.245 1.888,1.243 1.829,1.24 1.771,1.239 1.652,1.237 1.533,1.239 1.416,1.25 1.352,1.301 1.292,1.357 1.236,1.417 1.339,1.397 1.44,1.386 1.545,1.381 1.522,1.391 1.5,1.401 1.479,1.411 1.368,1.463 1.269,1.533 1.158,1.587 1.132,1.601 1.104,1.612 1.074,1.623 1.061,1.643 1.048,1.664 1.035,1.684 1.17,1.662 1.302,1.627 1.428,1.573 1.529,1.528 1.628,1.478 1.734,1.444 Z"
         id="path2"
         style="stroke:#000000;stroke-opacity:0;fill:#000000;fill-opacity:0.18487395" /><path
         fill="#000000"
         d="M 1.471,1.976 C 1.514,1.977 1.556,1.978 1.599,1.978 1.677,1.983 1.773,1.964 1.829,2.002 1.995,2.087 2.164,2.16 2.337,2.214 2.394,2.232 2.452,2.249 2.51,2.262 2.787,2.266 3.063,2.245 3.337,2.236 3.392,2.234 3.447,2.232 3.502,2.231 3.693,2.212 3.899,2.249 4.095,2.215 4.086,2.173 4.075,2.13 4.063,2.089 3.966,2.069 3.848,2.079 3.74,2.089 3.7,2.094 3.66,2.097 3.624,2.099 3.315,2.155 2.992,2.155 2.684,2.165 2.639,2.16 2.594,2.15 2.55,2.135 2.492,2.123 2.436,2.107 2.378,2.088 2.207,2.033 2.04,1.955 1.878,1.854 1.828,1.845 1.79,1.841 1.716,1.84 1.614,1.837 1.512,1.832 1.409,1.83 1.452,1.816 1.494,1.803 1.537,1.788 1.58,1.775 1.623,1.76 1.665,1.747 2.153,1.469 2.744,1.336 3.297,1.564 3.392,1.602 3.507,1.621 3.609,1.59 3.656,1.584 3.704,1.577 3.749,1.567 3.766,1.564 3.783,1.559 3.8,1.555 3.79,1.542 3.78,1.529 3.77,1.516 3.758,1.517 3.745,1.517 3.733,1.517 3.684,1.517 3.636,1.516 3.588,1.514 3.487,1.526 3.392,1.506 3.315,1.468 2.763,1.221 2.191,1.316 1.69,1.609 1.647,1.624 1.604,1.639 1.561,1.655 1.518,1.67 1.476,1.685 1.433,1.699 1.278,1.751 1.121,1.79 0.961,1.821 0.932,1.881 0.906,1.941 0.885,2.004 0.954,1.995 1.022,1.986 1.09,1.979 1.218,1.966 1.344,1.972 1.471,1.976 Z"
         id="path3"
         style="stroke:#000000;stroke-opacity:0;fill:#000000;fill-opacity:0.18487395" /><path
         fill="#000000"
         d="M 3.566,1.708 C 3.03,1.621 2.458,1.392 1.944,1.736 2.272,1.75 2.559,1.871 2.865,1.963 2.917,1.978 2.969,1.992 3.021,2.006 3.073,2.014 3.127,2.027 3.182,2.033 3.237,2.041 3.291,2.044 3.343,2.028 3.395,2.017 3.446,2.005 3.5,2.007 3.548,2.007 3.605,2.009 3.663,2.003 3.774,1.995 3.889,1.994 4,1.991 c 0.011,0 0.021,0 0.032,0 C 4.013,1.938 3.992,1.887 3.969,1.838 3.906,1.84 3.845,1.846 3.788,1.851 3.733,1.855 3.68,1.86 3.626,1.865 3.239,1.983 2.916,1.755 2.573,1.66 2.934,1.602 3.22,1.926 3.585,1.811 3.651,1.799 3.725,1.786 3.795,1.768 3.836,1.757 3.876,1.746 3.915,1.732 3.907,1.719 3.899,1.707 3.893,1.694 3.865,1.693 3.838,1.69 3.812,1.69 3.771,1.689 3.73,1.693 3.688,1.697 3.647,1.701 3.606,1.706 3.566,1.708 Z"
         id="path4"
         style="stroke:#000000;stroke-opacity:0;fill:#000000;fill-opacity:0.18487395" /><path
         fill="#000000"
         d="M 1.073,2.576 C 1.02,2.582 0.968,2.589 0.916,2.596 0.876,2.602 0.835,2.608 0.796,2.614 0.797,2.649 0.799,2.684 0.803,2.718 0.84,2.715 0.877,2.713 0.912,2.713 1.467,2.707 1.981,2.497 2.527,2.511 2.578,2.5 2.629,2.489 2.679,2.479 2.779,2.458 2.881,2.442 2.981,2.43 3.048,2.422 3.116,2.415 3.184,2.411 3.492,2.405 3.81,2.403 4.122,2.416 4.119,2.371 4.113,2.324 4.105,2.279 3.866,2.289 3.624,2.29 3.392,2.294 3.329,2.296 3.266,2.299 3.203,2.302 2.95,2.316 2.699,2.333 2.445,2.342 2.385,2.33 2.323,2.315 2.262,2.298 2.173,2.307 2.077,2.231 1.985,2.217 1.939,2.204 1.894,2.189 1.847,2.174 1.801,2.16 1.755,2.144 1.708,2.13 1.66,2.127 1.611,2.125 1.564,2.125 1.32,2.117 1.078,2.145 0.836,2.175 0.827,2.213 0.819,2.252 0.813,2.292 0.847,2.294 0.88,2.296 0.915,2.298 1.01,2.301 1.104,2.296 1.198,2.29 1.245,2.286 1.293,2.282 1.34,2.279 1.39,2.271 1.44,2.266 1.489,2.264 1.54,2.261 1.59,2.262 1.639,2.265 1.829,2.269 2.039,2.326 2.21,2.421 1.811,2.364 1.448,2.574 1.073,2.576 Z"
         id="path5-7"
         style="stroke:#000000;stroke-opacity:0;fill:#000000;fill-opacity:0.18487395" /><path
         fill="#000000"
         d="M 3.232,2.826 C 3.173,2.831 3.115,2.836 3.051,2.84 2.923,2.849 2.796,2.862 2.67,2.881 2.628,2.888 2.591,2.893 2.553,2.9 2.21,2.955 1.887,3.088 1.562,3.203 1.41,3.241 1.258,3.298 1.079,3.299 1.044,3.3 1.01,3.3 0.973,3.299 1,3.355 1.031,3.409 1.065,3.46 1.68,3.467 2.193,3.05 2.8,3.106 2.841,3.104 2.882,3.103 2.923,3.101 2.964,3.1 3.004,3.099 3.046,3.098 3.107,3.096 3.159,3.093 3.215,3.09 3.505,3.072 3.791,3.004 4.076,2.959 4.091,2.9 4.102,2.841 4.111,2.78 3.819,2.779 3.523,2.801 3.232,2.826 Z"
         id="path7"
         style="stroke:#000000;stroke-opacity:0;fill:#000000;fill-opacity:0.18487395" /><path
         fill="#000000"
         d="M 3.096,3.194 C 3.035,3.199 2.971,3.204 2.907,3.209 2.857,3.212 2.809,3.217 2.76,3.221 2.705,3.219 2.656,3.221 2.607,3.227 2.122,3.313 1.685,3.677 1.165,3.595 1.21,3.651 1.259,3.703 1.31,3.753 1.694,3.802 2.093,3.774 2.462,3.667 2.517,3.656 2.57,3.646 2.628,3.639 2.685,3.634 2.735,3.637 2.79,3.638 2.847,3.641 2.902,3.643 2.959,3.643 3.015,3.642 3.071,3.64 3.128,3.637 3.333,3.617 3.541,3.61 3.751,3.604 3.784,3.563 3.814,3.522 3.844,3.478 3.662,3.5 3.48,3.52 3.3,3.516 3.244,3.517 3.191,3.514 3.133,3.515 3.015,3.517 2.896,3.513 2.778,3.505 2.718,3.502 2.66,3.497 2.603,3.493 2.503,3.488 2.397,3.472 2.29,3.501 2.417,3.461 2.543,3.394 2.685,3.409 2.726,3.407 2.768,3.403 2.81,3.4 2.853,3.397 2.895,3.394 2.938,3.39 2.995,3.385 3.051,3.38 3.105,3.374 3.405,3.365 3.695,3.287 3.985,3.223 4.007,3.173 4.028,3.121 4.045,3.069 3.727,3.114 3.407,3.189 3.096,3.194 Z"
         id="path8"
         style="stroke:#000000;stroke-opacity:0;fill:#000000;fill-opacity:0.18487395" /><path
         fill="#000000"
         d="M 3.424,3.72 C 3.372,3.722 3.321,3.723 3.268,3.727 3.106,3.738 2.945,3.743 2.786,3.742 2.732,3.741 2.68,3.74 2.627,3.737 2.266,3.834 1.883,3.912 1.498,3.909 1.559,3.951 1.621,3.99 1.687,4.024 1.939,4.026 2.19,3.989 2.441,3.921 2.494,3.907 2.545,3.896 2.597,3.885 2.65,3.874 2.701,3.865 2.754,3.858 2.8,3.853 2.845,3.849 2.89,3.843 2.981,3.833 3.071,3.826 3.161,3.821 3.207,3.817 3.251,3.814 3.297,3.811 3.387,3.797 3.48,3.792 3.571,3.79 3.6,3.764 3.629,3.737 3.656,3.709 3.579,3.712 3.502,3.716 3.424,3.72 Z"
         id="path9"
         style="stroke:#000000;stroke-opacity:0;fill:#000000;fill-opacity:0.18487395" /><path
         fill="#000000"
         d="M 2.584,4.142 C 2.633,4.135 2.682,4.128 2.73,4.121 2.851,4.105 2.973,4.093 3.097,4.089 3.191,4.05 3.282,4.002 3.368,3.947 c -0.016,0 -0.031,0 -0.046,0 C 3.056,3.948 2.785,3.956 2.516,4.005 2.459,4.024 2.4,4.041 2.343,4.055 2.292,4.068 2.24,4.08 2.189,4.089 2.137,4.099 2.085,4.107 2.034,4.113 1.998,4.119 1.961,4.123 1.924,4.126 2.023,4.16 2.127,4.185 2.234,4.198 2.351,4.185 2.468,4.166 2.584,4.142 Z"
         id="path10"
         style="stroke:#000000;stroke-opacity:0;fill:#000000;fill-opacity:0.18487395" /><path
         fill="#000000"
         d="M 3.27,2.477 C 3.099,2.486 2.929,2.508 2.762,2.542 2.706,2.554 2.65,2.568 2.596,2.582 2.077,2.688 1.562,2.784 1.066,2.988 1.014,3.005 0.963,3.023 0.907,3.04 0.895,3.042 0.883,3.044 0.87,3.047 0.876,3.066 0.882,3.083 0.888,3.101 1.452,3.039 2.003,2.831 2.552,2.708 2.596,2.698 2.643,2.687 2.689,2.679 2.735,2.671 2.782,2.662 2.829,2.656 2.891,2.648 2.953,2.642 3.017,2.636 3.379,2.604 3.754,2.606 4.126,2.636 4.128,2.607 4.129,2.577 4.129,2.547 4.129,2.529 4.128,2.511 4.128,2.492 3.908,2.469 3.686,2.473 3.473,2.466 3.404,2.468 3.338,2.473 3.27,2.477 Z"
         id="path6"
         style="stroke:#000000;stroke-opacity:0;fill:#000000;fill-opacity:0.18487395" /></g></g><circle
     style="fill:#ffffff;fill-opacity:1;stroke:#383838;stroke-width:0.145594"
     id="path1-0"
     cx="165"
     cy="165"
     r="7.9272027" /></svg>
