<?xml version="1.0" encoding="UTF-8" standalone="no"?>
<svg
   viewBox="0 0 330 330"
   fill="#d69d36"
   version="1.1"
   id="svg6"
   sodipodi:docname="vinyl1.svg"
   width="330"
   height="330"
   inkscape:version="1.4 (86a8ad7, 2024-10-11)"
   xml:space="preserve"
   xmlns:inkscape="http://www.inkscape.org/namespaces/inkscape"
   xmlns:sodipodi="http://sodipodi.sourceforge.net/DTD/sodipodi-0.dtd"
   xmlns="http://www.w3.org/2000/svg"
   xmlns:svg="http://www.w3.org/2000/svg"><defs
     id="defs6"><style
       id="style1">
      .b14de8a3-a295-4946-98c8-03d078af55a8 {
        fill-rule: evenodd;
      }
    </style></defs><sodipodi:namedview
     id="namedview6"
     pagecolor="#505050"
     bordercolor="#eeeeee"
     borderopacity="1"
     inkscape:showpageshadow="0"
     inkscape:pageopacity="0"
     inkscape:pagecheckerboard="0"
     inkscape:deskcolor="#505050"
     inkscape:zoom="0.7071068"
     inkscape:cx="-173.94826"
     inkscape:cy="316.78383"
     inkscape:window-width="1721"
     inkscape:window-height="978"
     inkscape:window-x="195"
     inkscape:window-y="136"
     inkscape:window-maximized="0"
     inkscape:current-layer="svg6"
     showguides="false" /><g
     stroke="#d69d36"
     stroke-width="4"
     fill="none"
     id="g5"
     transform="translate(-70,-2)"
     style="fill:#000000;fill-opacity:1;stroke:#000000;stroke-opacity:1"><circle
       cx="235"
       cy="167"
       r="163"
       id="circle1"
       style="fill:#000000;fill-opacity:1;stroke:#000000;stroke-opacity:1" /><circle
       cx="235"
       cy="167"
       r="129"
       id="circle2"
       style="fill:#000000;fill-opacity:1;stroke:#000000;stroke-opacity:1" /><circle
       cx="235"
       cy="167"
       r="98"
       id="circle3"
       style="fill:#000000;fill-opacity:1;stroke:#000000;stroke-opacity:1" /><circle
       cx="235"
       cy="167"
       r="64"
       id="circle4"
       style="fill:#000000;fill-opacity:1;stroke:#000000;stroke-opacity:1" /><circle
       cx="235"
       cy="167"
       r="33"
       id="circle5"
       style="fill:#000000;fill-opacity:1;stroke:#000000;stroke-opacity:1" /><path
       d="m 235,4 v 130 m 0,66 V 330 M 120,52 l 92,92 m 46,46 92,92 M 72,167 h 130 m 66,0 h 130 m -278,115 92,-92 m 46,-46 92,-92"
       id="path5"
       style="fill:#000000;fill-opacity:1;stroke:#000000;stroke-opacity:1" /></g><circle
     style="fill:#884f7d;fill-opacity:1;stroke:#383838;stroke-width:1.40311"
     id="path1"
     cx="165"
     cy="165"
     r="76.395531" /><g
     id="g1"
     transform="matrix(6.6570875,0,0,6.6570875,85.452931,85.48756)"
     style="fill:#000000;fill-opacity:0.12628488"><g
       id="g14"
       transform="matrix(6.1935681,0,0,6.1828505,-3.5474242,-3.5131434)"
       style="fill:#000000;fill-opacity:0.12628488"><path
         class="b14de8a3-a295-4946-98c8-03d078af55a8"
         d="M 4.15227,1.99534 A 1.18583,1.18583 0 0 0 3.9452,1.56545 C 3.94241,1.56138 3.93646,1.56688 3.93787,1.57069 3.96399,1.64044 3.9821,1.71347 4.00398,1.78457 A 2.31283,2.31283 0 0 1 4.07452,2.01748 C 4.10263,2.16276 4.08166,2.3148 4.09818,2.4616 4.10025,2.4805 4.12744,2.47197 4.12902,2.4568 A 1.60972,1.60972 0 0 0 4.15227,1.99534 Z"
         id="path1-2"
         style="fill:#000000;fill-opacity:0.12628488" /><g
         id="g13"
         style="fill:#000000;fill-opacity:0.12628488"><path
           class="b14de8a3-a295-4946-98c8-03d078af55a8"
           d="M 0.94671,3.27078 C 0.82409,3.24278 0.79871,3.14609 0.76957,3.05059 A 1.80125,1.80125 0 0 1 0.87657,1.68678 0.331,0.331 0 0 1 0.94,1.596 1.68676,1.68676 0 0 0 0.90568,2.58606 l -0.031,0.005 L 0.7887,2.495 0.76061,2.50148 a 1.1639,1.1639 0 0 0 0.01585,0.40545 3.24923,3.24923 0 0 0 0.17025,0.36385 z"
           id="path2-3"
           style="fill:#000000;fill-opacity:0.12628488" /><g
           id="g12"
           style="fill:#000000;fill-opacity:0.12628488"><path
             class="b14de8a3-a295-4946-98c8-03d078af55a8"
             d="M 3.42872,4.04778 A 0.20964,0.20964 0 0 1 3.44572,3.9996 0.70083,0.70083 0 0 0 3.51381,3.38916 C 3.43621,3.11103 3.36773,2.83031 3.29492,2.55086 a 0.53335,0.53335 0 0 0 -0.03,-0.06208 C 3.22992,2.57378 3.19814,2.63796 3.17666,2.70533 3.11431,2.90033 3.05986,3.09799 2.99546,3.29227 2.893,3.601 2.7879,3.909 2.67768,4.215 2.63719,4.32765 2.59861,4.33917 2.47383,4.30567 a 2.16282,2.16282 0 0 1 0.03961,-0.222 c 0.06776,-0.239 0.13127,-0.47979 0.2133,-0.714 A 7.26491,7.26491 0 0 0 3.13344,1.83567 1.77239,1.77239 0 0 0 2.98087,0.8525 C 2.96576,0.81992 2.951,0.78712 2.93228,0.746 a 0.11666,0.11666 0 0 1 0.14714,0.06743 2.03538,2.03538 0 0 1 0.17833,0.42061 c 0.06954,0.3169 0.10569,0.64116 0.16861,0.95969 0.08,0.405 0.174,0.807 0.26,1.2109 a 0.7454,0.7454 0 0 1 -0.08461,0.50961 0.7906,0.7906 0 0 1 -0.14456,0.155 z"
             id="path3-3"
             style="fill:#000000;fill-opacity:0.12628488" /><path
             class="b14de8a3-a295-4946-98c8-03d078af55a8"
             d="m 1.37035,1.14324 a 1.36428,1.36428 0 0 0 -0.16369,0.90938 8.06044,8.06044 0 0 0 0.423,1.42917 c 0.02335,0.0693 0.04869,0.13827 0.07827,0.20507 a 0.83456,0.83456 0 0 0 0.06688,0.10608 l 0.038,-0.00267 c 0.012,-0.09033 0.02854,-0.18026 0.035,-0.271 C 1.85695,3.39163 1.86263,3.26336 1.86269,3.13547 A 2.50053,2.50053 0 0 1 2.02534,2.37672 c 0.174,-0.5438 0.35251,-1.086 0.52976,-1.62868 A 0.095,0.095 0 0 1 2.60537,0.69348 0.44844,0.44844 0 0 1 2.60816,0.76815 7.67989,7.67989 0 0 1 2.26833,2.31948 6.12193,6.12193 0 0 0 2.02879,3.22986 1.98592,1.98592 0 0 0 2.06224,4.22918 C 2.06403,4.23464 2.05861,4.24235 2.05524,4.25296 A 0.12648,0.12648 0 0 1 1.91632,4.17457 C 1.80732,3.98418 1.69797,3.79384 1.59202,3.60173 A 3.95535,3.95535 0 0 1 1.11786,2.24073 1.859,1.859 0 0 1 1.28222,1.19222 C 1.30709,1.13799 1.33313,1.07386 1.4134,1.07815 Z"
             id="path4-4"
             style="fill:#000000;fill-opacity:0.12628488" /><path
             class="b14de8a3-a295-4946-98c8-03d078af55a8"
             d="M 2.33117,4.31009 2.18717,4.29315 C 2.17088,4.1808 2.151,4.074 2.1406,3.96622 A 2.30144,2.30144 0 0 1 2.298,2.81715 5.09518,5.09518 0 0 0 2.709,0.77885 0.38831,0.38831 0 0 1 2.71348,0.72446 0.08636,0.08636 0 0 1 2.725,0.7025 c 0.07432,-0.02425 0.1,0.02139 0.10243,0.08263 A 5.1333,5.1333 0 0 1 2.83772,1.2994 8.16872,8.16872 0 0 1 2.60151,2.86845 C 2.54729,3.07704 2.467,3.27968 2.42466,3.49032 2.37952,3.71478 2.36481,3.94532 2.33792,4.1735 2.33322,4.21254 2.3338,4.25223 2.33117,4.31009 Z"
             id="path5-1"
             style="fill:#000000;fill-opacity:0.12628488" /><path
             class="b14de8a3-a295-4946-98c8-03d078af55a8"
             d="m 1.37035,1.14324 0.0431,-0.06507 0.09283,-0.1028 a 1.32834,1.32834 0 0 0 0.10106,0.91672 c 0.03018,0.10033 0.101,0.10948 0.1705,0.026 A 0.97864,0.97864 0 0 0 1.92211,1.69929 C 2.03401,1.44913 2.13554,1.19451 2.24426,0.94292 A 1.28684,1.28684 0 0 1 2.34913,0.75138 0.41383,0.41383 0 0 1 2.43143,0.67784 L 2.457,0.6951 C 2.44272,0.73387 2.428,0.77246 2.41419,0.81143 2.26756,1.22449 2.11826,1.63663 1.97613,2.05118 1.92656,2.19589 1.90456,2.35039 1.85097,2.49326 A 1.47012,1.47012 0 0 1 1.69454,2.74679 L 1.65605,2.74289 A 0.58589,0.58589 0 0 1 1.58218,2.63308 3.00262,3.00262 0 0 1 1.34509,1.32778 C 1.34944,1.266 1.36172,1.20481 1.37035,1.14324 Z"
             id="path6"
             style="fill:#000000;fill-opacity:0.12628488" /><path
             class="b14de8a3-a295-4946-98c8-03d078af55a8"
             d="M 3.65527,3.91476 A 3.23971,3.23971 0 0 0 3.86355,2.48464 3.40087,3.40087 0 0 0 3.72976,1.85272 2.97122,2.97122 0 0 0 3.38887,0.94217 C 3.38587,0.93732 3.38858,0.92875 3.40676,0.90529 A 1.11384,1.11384 0 0 1 3.50899,1.02808 3.29719,3.29719 0 0 1 3.9619,2.31275 3.61205,3.61205 0 0 1 4.01673,2.94541 1.86217,1.86217 0 0 1 3.78261,3.78305 0.43573,0.43573 0 0 1 3.71161,3.86642 0.7403,0.7403 0 0 1 3.65527,3.91476 Z"
             id="path7-1"
             style="fill:#000000;fill-opacity:0.12628488" /><path
             class="b14de8a3-a295-4946-98c8-03d078af55a8"
             d="M 1.56834,4.02482 C 1.46192,3.84206 1.3544,3.65975 1.24922,3.47617 A 2.691,2.691 0 0 1 0.95473,2.33826 5.23384,5.23384 0 0 1 0.97255,1.65049 0.70019,0.70019 0 0 1 1.01331,1.50074 l 0.0281,0.007 C 1.02606,1.63694 1.01599,1.76713 0.99422,1.89523 a 1.62073,1.62073 0 0 0 0.02476,0.53368 4.041,4.041 0 0 0 0.56329,1.4648 c 0.02648,0.04363 0.05713,0.085 0.0869,0.12659 0.02664,0.03735 0.05479,0.07364 0.08218,0.1103 L 1.73095,4.15237 1.56761,4.0235 Z"
             id="path8-3"
             style="fill:#000000;fill-opacity:0.12628488" /><path
             class="b14de8a3-a295-4946-98c8-03d078af55a8"
             d="M 2.73369,4.28519 A 1.14742,1.14742 0 0 1 3.04301,3.75019 0.34051,0.34051 0 0 1 3.11862,3.70652 C 3.26647,3.63989 3.35126,3.69143 3.36096,3.85262 A 0.3602,0.3602 0 0 1 3.22261,4.17319 L 3.20311,4.06658 A 0.14862,0.14862 0 0 0 3.0156,4.099 C 2.96535,4.14033 2.92635,4.19519 2.87702,4.238 a 0.89164,0.89164 0 0 1 -0.118,0.07483 z"
             id="path9-8"
             style="fill:#000000;fill-opacity:0.12628488" /><path
             class="b14de8a3-a295-4946-98c8-03d078af55a8"
             d="M 1.76723,0.84844 V 1.07581 A 0.8127,0.8127 0 0 0 1.92875,0.98947 2.21332,2.21332 0 0 0 2.112,0.78681 0.21827,0.21827 0 0 1 2.31356,0.69407 C 2.19001,0.86707 2.08272,1.029 1.96246,1.18056 1.90708,1.25024 1.82364,1.32676 1.72875,1.29125 1.6253,1.25246 1.63762,1.13467 1.63041,1.0427 1.62061,0.9188 1.64679,0.886 1.76723,0.84844 Z"
             id="path10-7"
             style="fill:#000000;fill-opacity:0.12628488" /><path
             class="b14de8a3-a295-4946-98c8-03d078af55a8"
             d="M 4.2833,2.10961 A 1.85675,1.85675 0 0 1 4.06364,3.42545 5.8229,5.8229 0 0 0 4.2833,2.10961 Z"
             id="path11-4"
             style="fill:#000000;fill-opacity:0.12628488" /><path
             class="b14de8a3-a295-4946-98c8-03d078af55a8"
             d="M 1.56761,4.0235 C 1.52121,4.00333 1.45978,3.9955 1.43114,3.96081 A 1.52512,1.52512 0 0 1 1.20984,3.51927 C 1.3356,3.6967 1.45197,3.8608 1.56834,4.02482 Z"
             id="path12-2"
             style="fill:#000000;fill-opacity:0.12628488" /></g></g></g></g><circle
     style="fill:#ffffff;fill-opacity:1;stroke:#383838;stroke-width:0.145594"
     id="path1-0"
     cx="165"
     cy="165"
     r="7.9272027" /></svg>
