<?xml version="1.0" encoding="UTF-8" standalone="no"?>
<svg
   viewBox="0 0 330 330"
   fill="#d69d36"
   version="1.1"
   id="svg6"
   sodipodi:docname="vinyl3.svg"
   width="330"
   height="330"
   inkscape:version="1.4 (86a8ad7, 2024-10-11)"
   xml:space="preserve"
   inkscape:export-filename="vinyl3.png"
   inkscape:export-xdpi="29.09091"
   inkscape:export-ydpi="29.09091"
   xmlns:inkscape="http://www.inkscape.org/namespaces/inkscape"
   xmlns:sodipodi="http://sodipodi.sourceforge.net/DTD/sodipodi-0.dtd"
   xmlns:xlink="http://www.w3.org/1999/xlink"
   xmlns="http://www.w3.org/2000/svg"
   xmlns:svg="http://www.w3.org/2000/svg"><defs
     id="defs6"><linearGradient
       id="swatch1"
       inkscape:swatch="solid"><stop
         style="stop-color:#000000;stop-opacity:0.12922174;"
         offset="0"
         id="stop1" /></linearGradient><linearGradient
       inkscape:collect="always"
       xlink:href="#swatch1"
       id="linearGradient1"
       x1="0.74"
       y1="2.5685"
       x2="4.06"
       y2="2.5685"
       gradientUnits="userSpaceOnUse" /></defs><sodipodi:namedview
     id="namedview6"
     pagecolor="#505050"
     bordercolor="#eeeeee"
     borderopacity="1"
     inkscape:showpageshadow="0"
     inkscape:pageopacity="0"
     inkscape:pagecheckerboard="0"
     inkscape:deskcolor="#505050"
     inkscape:zoom="1.0000001"
     inkscape:cx="49.999995"
     inkscape:cy="140.99999"
     inkscape:window-width="1721"
     inkscape:window-height="982"
     inkscape:window-x="18"
     inkscape:window-y="25"
     inkscape:window-maximized="0"
     inkscape:current-layer="g1"
     showguides="false" /><g
     stroke="#d69d36"
     stroke-width="4"
     fill="none"
     id="g5"
     transform="translate(-70,-2)"
     style="fill:#000000;fill-opacity:1;stroke:#000000;stroke-opacity:1"><circle
       cx="235"
       cy="167"
       r="163"
       id="circle1"
       style="fill:#000000;fill-opacity:1;stroke:#000000;stroke-opacity:1" /><circle
       cx="235"
       cy="167"
       r="129"
       id="circle2"
       style="fill:#000000;fill-opacity:1;stroke:#000000;stroke-opacity:1" /><circle
       cx="235"
       cy="167"
       r="98"
       id="circle3"
       style="fill:#000000;fill-opacity:1;stroke:#000000;stroke-opacity:1" /><circle
       cx="235"
       cy="167"
       r="64"
       id="circle4"
       style="fill:#000000;fill-opacity:1;stroke:#000000;stroke-opacity:1" /><circle
       cx="235"
       cy="167"
       r="33"
       id="circle5"
       style="fill:#000000;fill-opacity:1;stroke:#000000;stroke-opacity:1" /><path
       d="m 235,4 v 130 m 0,66 V 330 M 120,52 l 92,92 m 46,46 92,92 M 72,167 h 130 m 66,0 h 130 m -278,115 92,-92 m 46,-46 92,-92"
       id="path5"
       style="fill:#000000;fill-opacity:1;stroke:#000000;stroke-opacity:1" /></g><circle
     style="fill:#88a096;fill-opacity:1;stroke:#383838;stroke-width:1.40311"
     id="path1"
     cx="165"
     cy="165"
     r="76.395531" /><g
     id="g1"
     transform="matrix(3.6917225,0,0,3.6917225,165.59228,141.07579)"><g
       id="g12"
       transform="matrix(12.238385,0,0,12.2347,-29.532559,-24.944326)"
       style="fill:url(#linearGradient1)"><path
         fill="#000000"
         d="M 3.203,2.776 C 3.315,2.699 3.405,2.591 3.47,2.471 3.536,2.349 3.571,2.212 3.57,2.074 3.567,1.937 3.506,1.81 3.43,1.7 3.346,1.58 3.247,1.467 3.113,1.399 2.971,1.328 2.803,1.336 2.652,1.368 2.489,1.401 2.323,1.428 2.174,1.505 2.037,1.577 1.93,1.695 1.829,1.811 1.73,1.924 1.635,2.044 1.514,2.134 1.363,2.243 1.219,2.341 1.037,2.39 0.979,2.404 0.993,2.494 1.053,2.493 1.218,2.49 1.366,2.454 1.51,2.372 1.633,2.301 1.74,2.213 1.838,2.11 2.006,1.935 2.165,1.687 2.409,1.616 2.479,1.595 2.555,1.585 2.627,1.566 2.707,1.546 2.789,1.523 2.871,1.515 3.021,1.5 3.139,1.597 3.231,1.704 3.317,1.805 3.362,1.912 3.364,2.045 3.365,2.168 3.329,2.287 3.27,2.394 3.137,2.627 2.881,2.7 2.655,2.814 2.38,2.953 2.076,3.053 1.768,3.071 1.734,3.074 1.709,3.094 1.698,3.127 1.641,3.295 1.798,3.404 1.928,3.474 1.992,3.508 2.058,3.537 2.119,3.577 2.196,3.628 2.266,3.691 2.331,3.757 2.46,3.884 2.569,4.021 2.669,4.171 2.676,4.182 2.683,4.192 2.69,4.203 2.75,4.192 2.808,4.179 2.865,4.162 2.841,4.127 2.818,4.091 2.796,4.055 2.707,3.908 2.621,3.756 2.504,3.631 2.391,3.512 2.258,3.407 2.11,3.333 2.048,3.302 1.987,3.272 1.93,3.233 1.92,3.227 1.909,3.218 1.899,3.207 2.199,3.17 2.478,3.061 2.762,2.959 2.908,2.906 3.075,2.865 3.203,2.776 Z"
         id="path1-9"
         style="fill:url(#linearGradient1)" /><path
         fill="#000000"
         d="M 1.558,2.699 C 1.509,2.729 1.463,2.759 1.408,2.775 1.35,2.792 1.283,2.783 1.224,2.775 1.085,2.758 0.947,2.745 0.809,2.726 0.788,2.724 0.768,2.721 0.747,2.718 0.749,2.746 0.753,2.774 0.756,2.801 0.828,2.812 0.899,2.824 0.969,2.841 1.058,2.862 1.152,2.869 1.242,2.883 1.319,2.895 1.394,2.888 1.471,2.872 1.633,2.839 1.779,2.766 1.94,2.73 2.105,2.696 2.275,2.689 2.442,2.67 2.706,2.641 2.986,2.587 3.184,2.398 3.381,2.21 3.288,1.918 3.099,1.763 3.007,1.688 2.91,1.647 2.789,1.657 2.684,1.665 2.582,1.698 2.487,1.743 2.289,1.838 2.141,2.016 1.983,2.162 1.809,2.324 1.63,2.468 1.393,2.521 1.181,2.567 0.959,2.565 0.74,2.558 c 0,0.004 0,0.007 0,0.011 0,0.037 0.001,0.073 0.003,0.109 C 0.837,2.699 0.93,2.717 1.023,2.726 1.2,2.743 1.378,2.716 1.543,2.648 1.675,2.592 1.791,2.523 1.9,2.43 2.001,2.346 2.088,2.246 2.181,2.155 2.356,1.98 2.564,1.778 2.825,1.762 3.105,1.746 3.339,2.11 3.137,2.332 3.014,2.468 2.801,2.533 2.625,2.556 2.383,2.588 2.138,2.536 1.896,2.573 1.771,2.59 1.665,2.632 1.558,2.699 Z"
         id="path2"
         style="fill:url(#linearGradient1)" /><path
         fill="#000000"
         d="M 2.797,2.308 C 2.591,2.414 2.354,2.41 2.13,2.424 2.108,2.425 2.101,2.461 2.125,2.464 2.28,2.484 2.438,2.498 2.594,2.471 2.725,2.449 2.876,2.408 2.976,2.316 3.064,2.236 3.101,2.086 3.05,1.977 3.002,1.875 2.853,1.852 2.754,1.849 2.603,1.845 2.511,1.945 2.402,2.031 2.344,2.077 2.148,2.211 2.265,2.298 2.297,2.32 2.346,2.321 2.383,2.32 2.453,2.32 2.525,2.308 2.594,2.292 2.673,2.274 2.854,2.204 2.84,2.1 2.836,2.075 2.805,2.062 2.791,2.087 2.746,2.169 2.658,2.199 2.572,2.22 2.515,2.233 2.457,2.237 2.399,2.24 c -0.013,10e-4 -0.026,0 -0.04,-0.001 -0.003,0 -0.006,0 -0.01,0 C 2.372,2.216 2.412,2.198 2.436,2.183 2.474,2.16 2.509,2.137 2.543,2.109 2.62,2.047 2.695,2.005 2.793,1.997 2.863,1.99 2.951,1.996 2.954,2.083 2.958,2.187 2.882,2.264 2.797,2.308 Z"
         id="path3"
         style="fill:url(#linearGradient1)" /><path
         fill="#000000"
         d="M 0.895,3.008 C 1.042,3.07 1.2,3.108 1.361,3.116 1.436,3.121 1.516,3.12 1.59,3.106 1.682,3.088 1.77,3.044 1.856,3.008 1.938,2.973 2.018,2.942 2.103,2.917 2.187,2.893 2.268,2.873 2.345,2.83 2.367,2.817 2.357,2.789 2.337,2.78 2.269,2.753 2.184,2.783 2.114,2.8 2.029,2.821 1.943,2.855 1.856,2.867 1.771,2.88 1.688,2.902 1.605,2.93 1.526,2.955 1.465,2.994 1.379,2.997 1.221,3.002 1.064,2.952 0.912,2.916 0.865,2.905 0.818,2.896 0.771,2.89 0.776,2.915 0.782,2.94 0.788,2.966 0.823,2.978 0.859,2.992 0.895,3.008 Z"
         id="path4"
         style="fill:url(#linearGradient1)" /><path
         fill="#000000"
         d="m 1.091,3.264 c 0.075,0.011 0.151,0.018 0.225,0.033 0.088,0.02 0.147,0.062 0.209,0.126 0.059,0.062 0.12,0.115 0.17,0.185 0.052,0.075 0.117,0.111 0.2,0.146 0.071,0.029 0.142,0.053 0.207,0.095 0.062,0.04 0.12,0.104 0.166,0.163 C 2.289,4.038 2.341,4.023 2.327,3.986 2.268,3.838 2.169,3.733 2.021,3.674 1.938,3.642 1.837,3.63 1.783,3.554 1.728,3.478 1.675,3.399 1.618,3.324 1.504,3.173 1.332,3.154 1.154,3.159 1.057,3.161 0.968,3.144 0.871,3.129 0.859,3.127 0.847,3.125 0.835,3.123 0.846,3.153 0.857,3.184 0.87,3.214 0.943,3.233 1.016,3.251 1.091,3.264 Z"
         id="path5-3"
         style="fill:url(#linearGradient1)" /><path
         fill="#000000"
         d="M 3.083,4.082 C 3.005,3.981 2.939,3.87 2.896,3.752 2.848,3.615 2.808,3.463 2.708,3.353 2.663,3.304 2.603,3.271 2.54,3.251 2.736,3.22 2.93,3.176 3.121,3.108 3.392,3.014 3.613,2.78 3.733,2.525 3.8,2.386 3.828,2.244 3.841,2.091 3.854,1.945 3.817,1.81 3.753,1.68 3.637,1.443 3.425,1.274 3.171,1.208 2.953,1.149 2.719,1.182 2.502,1.23 2.243,1.287 2.006,1.415 1.808,1.589 1.712,1.673 1.628,1.765 1.527,1.842 1.426,1.918 1.316,1.98 1.203,2.035 1.091,2.089 0.97,2.125 0.849,2.157 0.829,2.164 0.808,2.169 0.787,2.175 0.778,2.209 0.771,2.245 0.765,2.28 0.823,2.275 0.879,2.265 0.936,2.255 1.086,2.226 1.234,2.161 1.367,2.089 1.507,2.013 1.634,1.917 1.75,1.81 1.875,1.696 1.959,1.539 2.104,1.45 2.252,1.358 2.437,1.32 2.605,1.291 2.756,1.266 2.903,1.259 3.054,1.282 3.326,1.323 3.544,1.487 3.671,1.728 3.77,1.916 3.763,2.115 3.681,2.306 3.602,2.492 3.493,2.666 3.358,2.817 3.229,2.957 3.042,3.052 2.863,3.107 2.673,3.166 2.467,3.19 2.269,3.194 2.218,3.195 2.204,3.278 2.258,3.286 2.298,3.293 2.337,3.301 2.375,3.313 2.429,3.33 2.458,3.361 2.502,3.392 2.554,3.428 2.596,3.469 2.625,3.525 2.659,3.59 2.681,3.662 2.715,3.728 2.753,3.8 2.791,3.874 2.831,3.946 2.866,4.01 2.905,4.074 2.952,4.135 2.997,4.118 3.04,4.101 3.083,4.082 Z"
         id="path6"
         style="fill:url(#linearGradient1)" /><path
         fill="#000000"
         d="m 1.209,3.726 c 0.077,0.079 0.162,0.15 0.253,0.213 0.037,10e-4 0.073,10e-4 0.109,0.003 0.053,0.002 0.118,0.002 0.178,0.012 0.023,0.009 0.046,0.02 0.068,0.031 0.082,0.043 0.159,0.096 0.241,0.14 0.062,0.031 0.125,0.066 0.188,0.097 0.051,0.004 0.103,0.007 0.154,0.007 0.01,0 0.021,0 0.031,-0.001 C 2.421,4.216 2.408,4.204 2.396,4.192 2.325,4.125 2.24,4.084 2.153,4.04 2.07,3.998 1.991,3.948 1.911,3.9 1.826,3.85 1.731,3.817 1.647,3.767 1.589,3.73 1.549,3.658 1.499,3.611 1.429,3.545 1.351,3.488 1.27,3.437 1.192,3.387 1.099,3.369 1.01,3.353 0.985,3.349 0.96,3.348 0.934,3.348 0.953,3.382 0.972,3.415 0.993,3.449 1.017,3.458 1.041,3.47 1.063,3.49 1.096,3.521 1.131,3.55 1.168,3.577 1.244,3.632 1.319,3.686 1.391,3.749 1.408,3.765 1.426,3.78 1.443,3.795 1.412,3.79 1.38,3.784 1.35,3.774 1.3,3.759 1.264,3.728 1.209,3.726 Z"
         id="path7"
         style="fill:url(#linearGradient1)" /><path
         fill="#000000"
         d="M 3.228,4.008 C 3.182,3.952 3.147,3.889 3.125,3.82 3.096,3.728 3.085,3.632 3.057,3.541 3.044,3.502 3.042,3.46 3.037,3.418 3.033,3.397 3.038,3.395 3.057,3.384 3.12,3.348 3.194,3.331 3.26,3.297 3.344,3.253 3.417,3.189 3.487,3.124 3.58,3.038 3.671,2.959 3.738,2.858 3.74,2.857 3.742,2.855 3.744,2.853 3.788,2.802 3.827,2.746 3.877,2.7 3.933,2.649 3.959,2.565 3.987,2.497 4.008,2.445 4.026,2.391 4.044,2.337 4.024,2.201 3.99,2.071 3.94,1.949 3.938,1.962 3.938,1.976 3.936,1.987 3.925,2.058 3.916,2.13 3.918,2.2 3.92,2.235 3.93,2.276 3.925,2.311 3.917,2.353 3.906,2.394 3.895,2.436 3.875,2.502 3.835,2.559 3.813,2.624 3.806,2.642 3.801,2.659 3.795,2.676 3.786,2.676 3.777,2.68 3.774,2.691 3.739,2.788 3.667,2.863 3.591,2.933 3.517,3.001 3.438,3.088 3.346,3.135 3.257,3.181 3.156,3.206 3.061,3.237 2.997,3.257 2.934,3.288 2.909,3.353 2.875,3.444 2.944,3.509 2.973,3.589 3.009,3.689 3.033,3.793 3.071,3.892 3.092,3.945 3.124,3.996 3.162,4.044 3.184,4.032 3.206,4.021 3.228,4.008 Z"
         id="path8"
         style="fill:url(#linearGradient1)" /><path
         fill="#000000"
         d="M 0.825,2.042 C 0.843,2.037 0.86,2.031 0.876,2.024 0.949,1.996 1.018,1.959 1.087,1.922 1.163,1.882 1.244,1.85 1.323,1.814 1.395,1.781 1.467,1.745 1.534,1.703 1.601,1.66 1.659,1.597 1.714,1.539 1.819,1.429 1.926,1.327 2.057,1.249 2.31,1.099 2.616,1.081 2.902,1.071 2.983,1.068 3.061,1.069 3.137,1.081 3.063,1.045 2.987,1.014 2.909,0.988 2.644,0.967 2.379,0.994 2.128,1.088 1.985,1.142 1.852,1.208 1.73,1.302 1.6,1.403 1.499,1.532 1.352,1.61 1.207,1.687 1.057,1.745 0.915,1.827 0.88,1.896 0.85,1.968 0.825,2.042 Z"
         id="path9"
         style="fill:url(#linearGradient1)" /><path
         fill="#000000"
         d="M 4.057,2.67 C 4.059,2.639 4.06,2.607 4.06,2.575 4.055,2.575 4.05,2.578 4.046,2.583 3.967,2.682 3.894,2.782 3.809,2.875 3.721,2.972 3.628,3.066 3.541,3.164 3.499,3.211 3.457,3.259 3.415,3.306 3.382,3.344 3.335,3.37 3.299,3.404 3.219,3.48 3.191,3.587 3.205,3.692 3.218,3.79 3.268,3.871 3.333,3.942 3.368,3.918 3.401,3.892 3.436,3.866 3.412,3.822 3.402,3.789 3.403,3.736 3.405,3.691 3.409,3.644 3.41,3.597 3.41,3.593 3.414,3.566 3.413,3.564 3.419,3.548 3.434,3.536 3.446,3.524 3.479,3.493 3.517,3.468 3.55,3.437 3.601,3.389 3.643,3.33 3.689,3.278 3.777,3.177 3.87,3.088 3.932,2.967 3.979,2.871 4.014,2.769 4.057,2.67 Z"
         id="path10"
         style="fill:url(#linearGradient1)" /><path
         fill="#000000"
         d="M 3.872,3.259 C 3.812,3.323 3.736,3.365 3.683,3.437 3.627,3.509 3.611,3.592 3.579,3.674 3.569,3.698 3.562,3.727 3.559,3.756 3.633,3.683 3.701,3.604 3.761,3.519 3.767,3.507 3.773,3.495 3.78,3.484 3.808,3.442 3.833,3.398 3.861,3.356 3.876,3.335 3.89,3.313 3.907,3.293 3.916,3.282 3.915,3.27 3.909,3.262 3.9,3.25 3.884,3.245 3.872,3.259 Z"
         id="path11"
         style="fill:url(#linearGradient1)" /><path
         fill="#000000"
         d="M 1.07,1.574 C 1.116,1.547 1.163,1.518 1.211,1.493 1.338,1.427 1.468,1.364 1.592,1.293 1.689,1.237 1.77,1.157 1.859,1.092 1.959,1.018 2.069,0.995 2.188,0.971 2.293,0.95 2.399,0.929 2.505,0.912 2.471,0.91 2.436,0.908 2.4,0.908 2.126,0.908 1.866,0.974 1.638,1.093 1.631,1.1 1.623,1.106 1.614,1.112 1.549,1.162 1.476,1.202 1.404,1.24 1.277,1.335 1.165,1.448 1.07,1.574 Z"
         id="path12"
         style="fill:url(#linearGradient1)" /></g></g><circle
     style="fill:#ffffff;fill-opacity:1;stroke:#383838;stroke-width:0.145594"
     id="path1-0"
     cx="165"
     cy="165"
     r="7.9272027" /></svg>
