<?xml version="1.0" encoding="UTF-8" standalone="no"?>
<svg
   viewBox="0 0 330 330"
   fill="#d69d36"
   version="1.1"
   id="svg6"
   sodipodi:docname="vinyl5.svg"
   width="330"
   height="330"
   inkscape:version="1.4 (86a8ad7, 2024-10-11)"
   xml:space="preserve"
   xmlns:inkscape="http://www.inkscape.org/namespaces/inkscape"
   xmlns:sodipodi="http://sodipodi.sourceforge.net/DTD/sodipodi-0.dtd"
   xmlns="http://www.w3.org/2000/svg"
   xmlns:svg="http://www.w3.org/2000/svg"><defs
     id="defs6" /><sodipodi:namedview
     id="namedview6"
     pagecolor="#505050"
     bordercolor="#eeeeee"
     borderopacity="1"
     inkscape:showpageshadow="0"
     inkscape:pageopacity="0"
     inkscape:pagecheckerboard="0"
     inkscape:deskcolor="#505050"
     inkscape:zoom="2.0000001"
     inkscape:cx="180.24999"
     inkscape:cy="174.24999"
     inkscape:window-width="1920"
     inkscape:window-height="1057"
     inkscape:window-x="-8"
     inkscape:window-y="-8"
     inkscape:window-maximized="1"
     inkscape:current-layer="svg6"
     showguides="false" /><g
     stroke="#d69d36"
     stroke-width="4"
     fill="none"
     id="g5"
     transform="translate(-70,-2)"
     style="fill:#000000;fill-opacity:1;stroke:#000000;stroke-opacity:1"><circle
       cx="235"
       cy="167"
       r="163"
       id="circle1"
       style="fill:#000000;fill-opacity:1;stroke:#000000;stroke-opacity:1" /><circle
       cx="235"
       cy="167"
       r="129"
       id="circle2"
       style="fill:#000000;fill-opacity:1;stroke:#000000;stroke-opacity:1" /><circle
       cx="235"
       cy="167"
       r="98"
       id="circle3"
       style="fill:#000000;fill-opacity:1;stroke:#000000;stroke-opacity:1" /><circle
       cx="235"
       cy="167"
       r="64"
       id="circle4"
       style="fill:#000000;fill-opacity:1;stroke:#000000;stroke-opacity:1" /><circle
       cx="235"
       cy="167"
       r="33"
       id="circle5"
       style="fill:#000000;fill-opacity:1;stroke:#000000;stroke-opacity:1" /><path
       d="m 235,4 v 130 m 0,66 V 330 M 120,52 l 92,92 m 46,46 92,92 M 72,167 h 130 m 66,0 h 130 m -278,115 92,-92 m 46,-46 92,-92"
       id="path5"
       style="fill:#000000;fill-opacity:1;stroke:#000000;stroke-opacity:1" /></g><circle
     style="fill:#ef8275;fill-opacity:1;stroke:#383838;stroke-width:1.40311"
     id="path1"
     cx="165"
     cy="165"
     r="76.395531" /><g
     id="g17"
     transform="matrix(47.067819,0,0,47.09657,48.224741,43.34956)"
     style="fill:#000000;fill-opacity:0.13929619;fill-rule:nonzero;stroke-width:1.0255045;stroke-dasharray:none"><path
       fill="#000000"
       d="M 3.192,3.873 C 3.225,3.918 3.251,3.966 3.271,4.017 3.296,4.003 3.322,3.988 3.346,3.973 3.335,3.943 3.322,3.911 3.306,3.881 3.224,3.718 3.049,3.629 2.905,3.516 2.582,3.261 2.821,2.82 2.533,2.557 2.427,2.46 2.258,2.469 2.14,2.54 1.987,2.635 1.91,2.813 1.847,2.966 1.711,3.3 1.737,3.662 1.684,4.012 1.7,4.021 1.717,4.029 1.733,4.038 1.826,3.774 1.858,3.499 1.914,3.225 1.949,3.053 1.997,2.875 2.103,2.728 2.152,2.66 2.224,2.605 2.31,2.582 2.413,2.556 2.493,2.643 2.535,2.714 2.616,2.85 2.582,3.016 2.588,3.162 2.594,3.317 2.664,3.439 2.784,3.546 2.917,3.662 3.085,3.731 3.192,3.873 Z"
       id="path1-9"
       style="fill:#000000;fill-opacity:0.13929619;fill-rule:nonzero;stroke-width:1.0255045;stroke-dasharray:none" /><path
       fill="#000000"
       d="M 2.934,4.036 C 2.959,4.067 2.977,4.101 2.992,4.139 3.024,4.128 3.055,4.117 3.086,4.104 3.069,4.062 3.052,4.02 3.029,3.983 2.932,3.823 2.768,3.775 2.604,3.69 2.461,3.616 2.528,3.405 2.524,3.278 2.521,3.17 2.516,3.06 2.478,2.957 2.448,2.875 2.384,2.792 2.278,2.817 2.154,2.846 2.096,3.002 2.068,3.1 2.022,3.254 2.033,3.418 2.033,3.576 2.033,3.754 1.974,3.942 1.901,4.113 1.917,4.119 1.933,4.125 1.948,4.13 2.027,4.023 2.106,3.915 2.152,3.791 2.206,3.646 2.189,3.49 2.188,3.34 2.188,3.24 2.161,2.986 2.29,2.935 2.324,2.921 2.362,3.09 2.37,3.122 2.422,3.341 2.326,3.595 2.499,3.775 2.615,3.897 2.83,3.904 2.934,4.036 Z"
       id="path2"
       style="fill:#000000;fill-opacity:0.13929619;fill-rule:nonzero;stroke-width:1.0255045;stroke-dasharray:none" /><path
       fill="#000000"
       d="M 2.703,4.204 C 2.746,4.198 2.789,4.191 2.831,4.182 2.82,4.159 2.808,4.137 2.792,4.116 2.76,4.072 2.698,4.046 2.647,4.026 2.58,4 2.522,3.958 2.454,3.936 2.362,3.906 2.265,3.954 2.217,4.023 2.183,4.072 2.171,4.13 2.155,4.187 2.177,4.192 2.201,4.196 2.223,4.2 2.275,4.096 2.323,3.983 2.459,4.066 2.508,4.095 2.556,4.119 2.609,4.141 2.653,4.158 2.682,4.178 2.703,4.204 Z"
       id="path3"
       style="fill:#000000;fill-opacity:0.13929619;fill-rule:nonzero;stroke-width:1.0255045;stroke-dasharray:none" /><path
       fill="#000000"
       d="M 2.295,4.208 C 2.356,4.216 2.419,4.22 2.481,4.22 2.506,4.22 2.531,4.219 2.555,4.218 2.531,4.176 2.5,4.141 2.443,4.124 2.363,4.1 2.319,4.151 2.295,4.208 Z"
       id="path4"
       style="fill:#000000;fill-opacity:0.13929619;fill-rule:nonzero;stroke-width:1.0255045;stroke-dasharray:none" /><path
       fill="#000000"
       d="M 3.425,3.92 C 3.373,3.755 3.289,3.6 3.165,3.469 3.092,3.391 2.907,3.312 2.941,3.195 2.956,3.143 2.974,3.1 2.977,3.047 2.981,2.978 2.958,2.906 2.935,2.841 2.895,2.732 2.824,2.657 2.753,2.565 2.662,2.444 2.817,2.364 2.91,2.3 3.1,2.163 3.264,1.946 3.294,1.723 3.319,1.532 3.165,1.383 2.954,1.456 2.742,1.53 2.593,1.756 2.514,1.939 2.455,2.074 2.421,2.185 2.259,2.237 2.142,2.275 2.043,2.318 1.949,2.396 1.748,2.562 1.69,2.828 1.636,3.059 1.602,3.201 1.573,3.346 1.568,3.491 1.562,3.638 1.572,3.787 1.558,3.934 1.563,3.937 1.568,3.941 1.573,3.944 1.643,3.685 1.676,3.418 1.734,3.156 1.787,2.916 1.837,2.651 2.035,2.472 2.13,2.386 2.252,2.373 2.369,2.325 2.488,2.275 2.548,2.189 2.595,2.08 2.643,1.968 2.69,1.866 2.764,1.766 2.829,1.677 2.984,1.505 3.118,1.566 3.241,1.622 3.133,1.843 3.094,1.915 3.032,2.027 2.934,2.136 2.824,2.213 2.66,2.33 2.526,2.457 2.673,2.642 2.706,2.684 2.746,2.72 2.778,2.763 2.82,2.818 2.843,2.897 2.86,2.964 2.888,3.077 2.796,3.196 2.853,3.301 2.898,3.381 3.024,3.434 3.09,3.496 3.193,3.594 3.284,3.711 3.342,3.835 3.359,3.871 3.373,3.908 3.386,3.947 3.399,3.938 3.412,3.929 3.425,3.92 Z"
       id="path5-4"
       style="fill:#000000;fill-opacity:0.13929619;fill-rule:nonzero;stroke-width:1.0255045;stroke-dasharray:none" /><path
       fill="#000000"
       d="M 2.702,2.225 C 2.782,2.212 2.824,2.12 2.857,2.061 2.916,1.959 3.014,1.887 3.046,1.773 3.055,1.744 3.03,1.716 2.999,1.716 2.927,1.717 2.858,1.788 2.828,1.856 2.816,1.867 2.806,1.879 2.796,1.892 2.763,1.932 2.759,1.988 2.735,2.032 2.71,2.078 2.677,2.12 2.652,2.167 2.637,2.2 2.665,2.23 2.702,2.225 Z"
       id="path6-8"
       style="fill:#000000;fill-opacity:0.13929619;fill-rule:nonzero;stroke-width:1.0255045;stroke-dasharray:none" /><path
       fill="#000000"
       d="M 3.544,3.827 C 3.499,3.67 3.437,3.512 3.35,3.379 3.272,3.262 3.194,3.161 3.141,3.03 3.089,2.905 3.051,2.775 3.005,2.648 2.948,2.491 2.996,2.391 3.114,2.272 3.188,2.198 3.258,2.125 3.31,2.036 3.402,1.876 3.522,1.693 3.492,1.505 3.463,1.32 3.239,1.186 3.042,1.223 2.794,1.27 2.629,1.465 2.504,1.652 2.432,1.761 2.36,1.869 2.276,1.97 2.183,2.082 2.068,2.165 1.946,2.249 1.695,2.421 1.534,2.624 1.47,2.91 1.398,3.225 1.451,3.541 1.454,3.856 1.466,3.866 1.477,3.875 1.489,3.883 1.523,3.643 1.517,3.4 1.531,3.156 1.548,2.882 1.628,2.631 1.843,2.432 1.931,2.352 2.033,2.289 2.128,2.218 2.233,2.139 2.321,2.045 2.4,1.944 2.566,1.732 2.673,1.473 2.937,1.347 3.081,1.279 3.245,1.314 3.356,1.415 3.451,1.502 3.434,1.641 3.402,1.748 3.34,1.956 3.132,2.122 2.989,2.285 2.921,2.363 2.871,2.443 2.878,2.546 2.886,2.665 2.96,2.791 3.001,2.904 3.042,3.016 3.085,3.128 3.143,3.235 3.209,3.356 3.31,3.463 3.395,3.574 3.459,3.658 3.496,3.753 3.517,3.85 3.525,3.844 3.535,3.836 3.544,3.827 Z"
       id="path7"
       style="fill:#000000;fill-opacity:0.13929619;fill-rule:nonzero;stroke-width:1.0255045;stroke-dasharray:none" /><path
       fill="#000000"
       d="M 3.625,1.41 C 3.542,1.329 3.45,1.258 3.353,1.195 3.373,1.239 3.394,1.282 3.423,1.323 3.463,1.382 3.536,1.409 3.562,1.477 3.589,1.55 3.571,1.663 3.557,1.737 3.543,1.812 3.496,1.864 3.451,1.925 3.405,1.988 3.388,2.054 3.366,2.126 3.342,2.203 3.276,2.264 3.23,2.331 3.193,2.387 3.168,2.447 3.152,2.511 3.139,2.572 3.113,2.638 3.126,2.7 3.142,2.779 3.188,2.845 3.233,2.91 3.294,2.995 3.316,3.091 3.348,3.186 3.377,3.276 3.421,3.364 3.46,3.451 3.505,3.552 3.562,3.656 3.612,3.764 3.634,3.743 3.657,3.72 3.677,3.699 3.66,3.658 3.64,3.618 3.62,3.578 3.526,3.387 3.453,3.194 3.384,2.996 3.356,2.919 3.305,2.857 3.263,2.788 3.197,2.679 3.242,2.563 3.273,2.452 3.294,2.381 3.337,2.317 3.381,2.257 3.432,2.187 3.446,2.109 3.473,2.028 3.496,1.955 3.553,1.898 3.582,1.828 3.611,1.755 3.627,1.68 3.632,1.601 3.635,1.54 3.639,1.471 3.625,1.412 c 10e-4,-10e-4 0,-10e-4 0,-0.002 z"
       id="path8"
       style="fill:#000000;fill-opacity:0.13929619;fill-rule:nonzero;stroke-width:1.0255045;stroke-dasharray:none" /><path
       fill="#000000"
       d="M 3.608,1.953 C 3.543,2.087 3.483,2.224 3.427,2.36 3.378,2.477 3.306,2.607 3.354,2.733 3.372,2.782 3.408,2.824 3.44,2.866 3.484,2.925 3.505,2.987 3.526,3.055 3.566,3.191 3.618,3.323 3.686,3.45 3.713,3.501 3.735,3.556 3.753,3.613 3.772,3.59 3.79,3.567 3.807,3.544 3.807,3.543 3.806,3.542 3.806,3.541 3.787,3.478 3.757,3.418 3.729,3.357 3.694,3.284 3.679,3.205 3.659,3.127 3.639,3.05 3.622,2.972 3.599,2.896 3.579,2.837 3.536,2.786 3.5,2.736 3.409,2.604 3.534,2.417 3.589,2.289 3.657,2.129 3.733,1.972 3.804,1.813 3.825,1.764 3.838,1.717 3.845,1.673 3.817,1.633 3.789,1.595 3.758,1.557 3.761,1.696 3.668,1.831 3.608,1.953 Z"
       id="path9"
       style="fill:#000000;fill-opacity:0.13929619;fill-rule:nonzero;stroke-width:1.0255045;stroke-dasharray:none" /><path
       fill="#000000"
       d="M 3.634,2.284 C 3.511,2.466 3.601,2.694 3.678,2.875 3.752,3.053 3.841,3.218 3.903,3.396 3.929,3.35 3.954,3.303 3.974,3.255 3.935,3.148 3.887,3.044 3.837,2.938 3.785,2.826 3.741,2.715 3.709,2.599 3.693,2.547 3.688,2.494 3.685,2.441 3.681,2.367 3.73,2.307 3.771,2.247 3.859,2.111 3.896,1.95 3.914,1.789 3.901,1.766 3.888,1.742 3.874,1.72 3.83,1.92 3.752,2.109 3.634,2.284 Z"
       id="path10"
       style="fill:#000000;fill-opacity:0.13929619;fill-rule:nonzero;stroke-width:1.0255045;stroke-dasharray:none" /><path
       fill="#000000"
       d="M 3.985,2.104 C 3.983,2.094 3.967,2.095 3.965,2.104 3.944,2.172 3.916,2.234 3.878,2.296 3.844,2.351 3.788,2.4 3.771,2.463 3.739,2.582 3.811,2.703 3.864,2.809 3.922,2.925 3.968,3.045 4.01,3.166 4.023,3.135 4.033,3.104 4.044,3.071 4.027,3.003 4.012,2.935 3.994,2.867 3.976,2.799 3.959,2.736 3.932,2.672 3.9,2.596 3.862,2.533 3.899,2.452 3.952,2.336 4.011,2.234 3.985,2.104 Z"
       id="path11"
       style="fill:#000000;fill-opacity:0.13929619;fill-rule:nonzero;stroke-width:1.0255045;stroke-dasharray:none" /><path
       fill="#000000"
       d="M 4.097,2.854 C 4.112,2.765 4.119,2.674 4.119,2.582 4.119,2.455 4.104,2.333 4.077,2.215 4.07,2.23 4.063,2.246 4.057,2.261 4.014,2.352 4.005,2.44 4.012,2.538 4.019,2.647 4.056,2.751 4.097,2.854 Z"
       id="path12"
       style="fill:#000000;fill-opacity:0.13929619;fill-rule:nonzero;stroke-width:1.0255045;stroke-dasharray:none" /><path
       fill="#000000"
       d="M 1.398,2.821 C 1.42,2.733 1.452,2.648 1.496,2.567 1.537,2.491 1.602,2.446 1.669,2.39 1.73,2.339 1.773,2.276 1.828,2.22 1.89,2.156 1.966,2.106 2.039,2.056 2.174,1.964 2.28,1.856 2.376,1.731 2.48,1.595 2.572,1.455 2.685,1.325 2.739,1.261 2.797,1.198 2.87,1.152 2.942,1.105 3.037,1.112 3.111,1.07 3.085,1.059 3.058,1.049 3.03,1.039 2.901,1.041 2.771,1.081 2.674,1.157 2.535,1.266 2.457,1.411 2.364,1.552 2.259,1.711 2.14,1.852 1.979,1.966 1.916,2.011 1.853,2.056 1.794,2.107 1.725,2.167 1.678,2.242 1.611,2.303 1.359,2.534 1.285,2.86 1.269,3.18 1.259,3.352 1.247,3.533 1.288,3.701 1.327,3.742 1.367,3.781 1.41,3.818 1.401,3.761 1.382,3.707 1.362,3.651 1.332,3.562 1.342,3.451 1.342,3.359 1.342,3.18 1.356,2.998 1.398,2.821 Z"
       id="path13"
       style="fill:#000000;fill-opacity:0.13929619;fill-rule:nonzero;stroke-width:1.0255045;stroke-dasharray:none" /><path
       fill="#000000"
       d="M 1.362,2.359 C 1.406,2.283 1.501,2.236 1.574,2.188 1.711,2.1 1.779,1.95 1.918,1.867 2.066,1.779 2.215,1.692 2.296,1.543 2.337,1.469 2.361,1.39 2.4,1.315 2.437,1.243 2.49,1.178 2.542,1.115 2.592,1.054 2.65,1.003 2.719,0.962 2.669,0.955 2.618,0.949 2.567,0.946 2.558,0.953 2.548,0.959 2.54,0.966 2.464,1.023 2.395,1.087 2.335,1.158 2.271,1.231 2.244,1.31 2.207,1.394 2.17,1.478 2.14,1.548 2.074,1.617 2.01,1.684 1.915,1.745 1.833,1.794 1.761,1.836 1.707,1.903 1.652,1.963 1.589,2.031 1.517,2.082 1.436,2.131 1.114,2.326 1.054,2.751 1.017,3.076 1.009,3.149 1.007,3.224 1.011,3.301 1.056,3.394 1.108,3.48 1.17,3.562 1.159,3.434 1.143,3.306 1.143,3.178 1.143,2.995 1.187,2.79 1.246,2.616 1.274,2.526 1.315,2.441 1.362,2.359 Z"
       id="path14"
       style="fill:#000000;fill-opacity:0.13929619;fill-rule:nonzero;stroke-width:1.0255045;stroke-dasharray:none" /><path
       fill="#000000"
       d="M 1.84,1.49 C 1.756,1.628 1.646,1.735 1.521,1.842 1.404,1.941 1.246,2 1.146,2.117 1.063,2.212 1.032,2.356 0.984,2.468 0.93,2.593 0.888,2.714 0.872,2.848 0.871,2.854 0.87,2.862 0.87,2.869 0.887,2.962 0.91,3.053 0.942,3.14 0.939,3.076 0.938,3.014 0.938,2.95 0.94,2.81 0.97,2.678 1.028,2.549 1.053,2.491 1.091,2.439 1.12,2.382 1.15,2.32 1.17,2.255 1.206,2.195 1.276,2.082 1.451,2.039 1.558,1.959 1.673,1.873 1.747,1.768 1.83,1.657 1.915,1.546 1.976,1.42 2.048,1.301 2.102,1.213 2.187,1.056 2.297,1.024 2.305,1.021 2.303,1.01 2.294,1.01 2.197,1.002 2.127,1.08 2.075,1.145 1.984,1.255 1.912,1.37 1.84,1.49 Z"
       id="path15"
       style="fill:#000000;fill-opacity:0.13929619;fill-rule:nonzero;stroke-width:1.0255045;stroke-dasharray:none" /><path
       fill="#000000"
       d="M 0.855,2.607 C 0.921,2.354 1.005,2.057 1.213,1.868 1.319,1.771 1.467,1.719 1.573,1.622 1.667,1.536 1.698,1.407 1.786,1.315 1.829,1.271 1.878,1.232 1.922,1.19 1.974,1.139 2.012,1.077 2.058,1.023 2.068,1.011 2.079,1.002 2.089,0.992 2.038,1.005 1.987,1.02 1.938,1.037 1.932,1.046 1.925,1.054 1.918,1.062 1.872,1.119 1.816,1.164 1.761,1.212 1.654,1.305 1.607,1.414 1.528,1.523 1.478,1.596 1.381,1.641 1.306,1.689 1.241,1.732 1.173,1.771 1.113,1.821 1.042,1.881 0.984,1.956 0.937,2.038 0.876,2.208 0.843,2.392 0.843,2.582 0.843,2.603 0.844,2.624 0.845,2.645 0.849,2.633 0.852,2.62 0.855,2.607 Z"
       id="path16"
       style="fill:#000000;fill-opacity:0.13929619;fill-rule:nonzero;stroke-width:1.0255045;stroke-dasharray:none" /><path
       fill="#000000"
       d="M 1.269,1.502 C 1.254,1.515 1.239,1.525 1.222,1.536 1.13,1.647 1.052,1.771 0.992,1.903 1.021,1.864 1.052,1.825 1.083,1.788 1.158,1.697 1.26,1.648 1.35,1.573 1.429,1.506 1.454,1.38 1.502,1.293 1.509,1.279 1.517,1.267 1.524,1.253 1.463,1.298 1.404,1.348 1.349,1.4 1.326,1.438 1.301,1.473 1.269,1.502 Z"
       id="path17"
       style="fill:#000000;fill-opacity:0.13929619;fill-rule:nonzero;stroke-width:1.0255045;stroke-dasharray:none" /></g><circle
     style="fill:#ffffff;fill-opacity:1;stroke:#383838;stroke-width:0.145594"
     id="path1-0"
     cx="165"
     cy="165"
     r="7.9272027" /></svg>
