<?xml version="1.0" encoding="UTF-8" standalone="no"?>
<svg
   viewBox="0 0 330 330"
   fill="#d69d36"
   version="1.1"
   id="svg6"
   sodipodi:docname="vinyl4.svg"
   width="330"
   height="330"
   inkscape:version="1.4 (86a8ad7, 2024-10-11)"
   xml:space="preserve"
   inkscape:export-filename="vinyl4.png"
   inkscape:export-xdpi="29.09091"
   inkscape:export-ydpi="29.09091"
   xmlns:inkscape="http://www.inkscape.org/namespaces/inkscape"
   xmlns:sodipodi="http://sodipodi.sourceforge.net/DTD/sodipodi-0.dtd"
   xmlns="http://www.w3.org/2000/svg"
   xmlns:svg="http://www.w3.org/2000/svg"><defs
     id="defs6"><style
       id="style1">
      .a05dfce7-c623-4fd4-843b-368d391571ce {
        fill-rule: evenodd;
      }
    </style></defs><sodipodi:namedview
     id="namedview6"
     pagecolor="#505050"
     bordercolor="#eeeeee"
     borderopacity="1"
     inkscape:showpageshadow="0"
     inkscape:pageopacity="0"
     inkscape:pagecheckerboard="0"
     inkscape:deskcolor="#505050"
     inkscape:zoom="1.4142136"
     inkscape:cx="51.972347"
     inkscape:cy="235.82011"
     inkscape:window-width="1920"
     inkscape:window-height="1057"
     inkscape:window-x="-8"
     inkscape:window-y="-8"
     inkscape:window-maximized="1"
     inkscape:current-layer="svg6"
     showguides="true" /><g
     stroke="#d69d36"
     stroke-width="4"
     fill="none"
     id="g5"
     transform="translate(-70,-2)"
     style="fill:#000000;fill-opacity:1;stroke:#000000;stroke-opacity:1"><circle
       cx="235"
       cy="167"
       r="163"
       id="circle1"
       style="fill:#000000;fill-opacity:1;stroke:#000000;stroke-opacity:1" /><circle
       cx="235"
       cy="167"
       r="129"
       id="circle2"
       style="fill:#000000;fill-opacity:1;stroke:#000000;stroke-opacity:1" /><circle
       cx="235"
       cy="167"
       r="98"
       id="circle3"
       style="fill:#000000;fill-opacity:1;stroke:#000000;stroke-opacity:1" /><circle
       cx="235"
       cy="167"
       r="64"
       id="circle4"
       style="fill:#000000;fill-opacity:1;stroke:#000000;stroke-opacity:1" /><circle
       cx="235"
       cy="167"
       r="33"
       id="circle5"
       style="fill:#000000;fill-opacity:1;stroke:#000000;stroke-opacity:1" /><path
       d="m 235,4 v 130 m 0,66 V 330 M 120,52 l 92,92 m 46,46 92,92 M 72,167 h 130 m 66,0 h 130 m -278,115 92,-92 m 46,-46 92,-92"
       id="path5"
       style="fill:#000000;fill-opacity:1;stroke:#000000;stroke-opacity:1" /></g><circle
     style="fill:#deb887;fill-opacity:1;stroke:#383838;stroke-width:1.40311"
     id="path1"
     cx="165"
     cy="165"
     r="76.395531" /><g
     id="g2"
     transform="translate(79.75,152.5964)"
     style="fill:#000000;fill-opacity:0.13782991"><g
       id="g20"
       transform="matrix(42.967389,0,0,42.981113,-22.15313,-95.044778)"
       style="fill:#000000;fill-opacity:0.13782991"><path
         class="a05dfce7-c623-4fd4-843b-368d391571ce"
         d="M 2.9424,4.18519 2.89748,4.19914 C 2.89125,4.16789 2.88518,4.14292 2.88121,4.11741 A 1.60445,1.60445 0 0 0 2.79544,3.8387 2.67026,2.67026 0 0 0 2.6271,3.43707 C 2.59487,3.3779 2.56397,3.31807 2.53269,3.25841 A 0.80088,0.80088 0 0 1 2.456,3.02193 C 2.44376,2.95231 2.42615,2.88363 2.41216,2.81424 2.40347,2.7709 2.39829,2.72691 2.38933,2.68365 A 0.13669,0.13669 0 0 0 2.3,2.5788 0.72407,0.72407 0 0 0 2.06285,2.52492 0.40824,0.40824 0 0 0 1.72454,2.69443 0.74142,0.74142 0 0 0 1.58475,2.99 C 1.56541,3.06914 1.55063,3.1493 1.53216,3.22852 a 0.70012,0.70012 0 0 0 0.006,0.22717 c 0.00726,0.07733 0.02692,0.15373 0.03377,0.231 A 0.4797,0.4797 0 0 1 1.52121,3.95039 L 1.4537,3.90039 A 0.378,0.378 0 0 0 1.48857,3.69024 0.21171,0.21171 0 0 0 1.48257,3.64829 0.9532,0.9532 0 0 1 1.47,3.17012 1.65854,1.65854 0 0 1 1.634,2.70567 C 1.657,2.66376 1.682,2.62288 1.7081,2.58286 A 0.18551,0.18551 0 0 1 1.74561,2.54567 0.72089,0.72089 0 0 1 2.04161,2.40756 C 2.06738,2.40113 2.09282,2.39317 2.11789,2.38464 A 0.16558,0.16558 0 0 0 2.2345,2.2458 C 2.2434,2.18995 2.24492,2.1328 2.2557,2.07739 a 0.55108,0.55108 0 0 1 0.25276,-0.3706 0.17666,0.17666 0 0 1 0.14833,-0.01833 0.36431,0.36431 0 0 1 0.16611,0.10121 0.28047,0.28047 0 0 1 0.05068,0.0802 0.37184,0.37184 0 0 1 -0.01072,0.314 1.7072,1.7072 0 0 1 -0.17692,0.3143 0.645,0.645 0 0 0 -0.1226,0.335 c -0.0023,0.03 -0.007,0.05974 -0.00982,0.08959 a 0.68231,0.68231 0 0 0 0.08387,0.37343 c 0.0481,0.09665 0.09827,0.19269 0.13983,0.29208 A 2.65465,2.65465 0 0 1 2.94604,4.17394 Z M 2.58532,2.19508 A 0.16506,0.16506 0 0 0 2.70337,2.02569 0.12171,0.12171 0 0 0 2.57923,1.91887 C 2.52541,1.92277 2.49294,1.96561 2.49185,2.03163 a 0.20012,0.20012 0 0 0 0.09347,0.16345 z"
         id="path1-1"
         style="fill:#000000;fill-opacity:0.13782991;fill-rule:evenodd" /><path
         class="a05dfce7-c623-4fd4-843b-368d391571ce"
         d="M 3.24644,4.076 A 0.26021,0.26021 0 0 1 3.2281,4.0238 C 3.21521,3.9258 3.2041,3.82747 3.19233,3.72926 3.18376,3.65726 3.17584,3.58526 3.16633,3.51346 3.15048,3.39446 3.13705,3.27485 3.11633,3.15659 A 1.01127,1.01127 0 0 1 3.17574,2.70837 0.72108,0.72108 0 0 1 3.31155,2.46374 1.217,1.217 0 0 0 3.44945,2.2499 0.36019,0.36019 0 0 0 3.47727,2.042 C 3.46068,1.91944 3.43957,1.79737 3.41939,1.6753 3.40906,1.6124 3.397,1.54991 3.38534,1.48742 A 0.51574,0.51574 0 0 0 3.15686,1.14917 C 3.04594,1.07286 2.93443,0.99717 2.82048,0.92574 A 0.52218,0.52218 0 0 0 2.68436,0.86842 0.104,0.104 0 0 0 2.54606,0.935 0.99215,0.99215 0 0 1 2.36121,1.19288 5.46716,5.46716 0 0 0 1.99159,1.60322 0.353,0.353 0 0 0 1.94259,1.6787 2.02865,2.02865 0 0 1 1.71091,2.0527 C 1.62291,2.17694 1.53318,2.30008 1.44629,2.42514 A 0.88474,0.88474 0 0 0 1.31561,2.69126 3.04529,3.04529 0 0 1 1.16603,3.06609 0.71107,0.71107 0 0 0 1.1062,3.31248 C 1.10263,3.3842 1.09991,3.4562 1.09661,3.53104 A 0.06594,0.06594 0 0 1 1.05409,3.45871 C 1.05634,3.38641 1.05956,3.31359 1.06821,3.24187 A 0.82584,0.82584 0 0 1 1.14768,3.00642 c 0.03106,-0.0695 0.05775,-0.141 0.0834,-0.21256 A 1.82045,1.82045 0 0 1 1.36082,2.4741 C 1.40496,2.39943 1.45189,2.32628 1.50056,2.25448 1.63169,2.06098 1.76506,1.86896 1.89611,1.67537 a 0.49793,0.49793 0 0 0 0.05294,-0.104 0.48544,0.48544 0 0 1 0.09728,-0.1509 C 2.09913,1.36077 2.15481,1.30369 2.2098,1.24591 A 0.90153,0.90153 0 0 0 2.375,1.03261 0.29147,0.29147 0 0 0 2.40709,0.905 C 2.40795,0.85768 2.41459,0.81053 2.41845,0.766 L 2.4311,0.75877 a 1.55458,1.55458 0 0 1 0.49,0.04359 0.09692,0.09692 0 0 1 0.036,0.02078 c 0.09078,0.07627 0.18191,0.15218 0.271,0.23033 A 1.00206,1.00206 0 0 1 3.35581,1.18 a 0.6051,0.6051 0 0 1 0.116,0.29851 c 0.01728,0.1226 0.03257,0.24558 0.05187,0.368 A 0.96827,0.96827 0 0 0 3.56035,1.99023 0.3514,0.3514 0 0 1 3.5189,2.30018 Q 3.43026,2.43882 3.33438,2.57286 A 0.71909,0.71909 0 0 0 3.20351,2.9597 1.83231,1.83231 0 0 0 3.19651,3.15057 c 0.00466,0.09522 0.0162,0.19006 0.02561,0.28511 0.00771,0.07737 0.01652,0.15455 0.02515,0.23188 q 0.01372,0.12369 0.02811,0.24722 c 0.00412,0.03514 0.00947,0.07 0.01374,0.10509 A 0.04521,0.04521 0 0 1 3.24644,4.076 Z"
         id="path2"
         style="fill:#000000;fill-opacity:0.13782991;fill-rule:evenodd" /><path
         class="a05dfce7-c623-4fd4-843b-368d391571ce"
         d="M 3.06554,4.14858 3.01785,4.16539 C 3.00849,4.12578 2.99957,4.09031 2.9918,4.05459 2.95325,3.87791 2.90257,3.70466 2.84693,3.53273 A 2.26523,2.26523 0 0 0 2.7128,3.21473 0.37275,0.37275 0 0 1 2.7178,2.86287 C 2.74995,2.79812 2.77449,2.72927 2.80037,2.66145 A 2.375,2.375 0 0 1 2.95661,2.324 0.758,0.758 0 0 0 3.05752,2.05707 0.4695,0.4695 0 0 0 2.90124,1.61676 0.3723,0.3723 0 0 0 2.65244,1.51224 0.36254,0.36254 0 0 0 2.35393,1.64866 C 2.289,1.72571 2.23073,1.80845 2.17002,1.88915 a 0.45037,0.45037 0 0 0 -0.081,0.16 0.47709,0.47709 0 0 1 -0.19529,0.26313 C 1.82856,2.36095 1.76438,2.41147 1.70335,2.46519 A 0.58479,0.58479 0 0 0 1.535,2.7192 4.63263,4.63263 0 0 0 1.3702,3.22962 0.88383,0.88383 0 0 0 1.34313,3.47676 1.85255,1.85255 0 0 0 1.37071,3.68137 0.21476,0.21476 0 0 1 1.36671,3.81574 C 1.31209,3.79733 1.30243,3.78019 1.3028,3.72607 1.30308,3.6785 1.29827,3.63077 1.29419,3.58325 1.2899,3.53396 1.28129,3.48496 1.27912,3.43559 A 0.736,0.736 0 0 1 1.32877,3.14433 q 0.0768,-0.20671 0.15488,-0.413 C 1.50257,2.68167 1.52273,2.63238 1.54519,2.58416 A 0.60781,0.60781 0 0 1 1.65745,2.42362 q 0.13755,-0.144 0.272,-0.29125 a 0.42679,0.42679 0 0 0 0.06026,-0.087 2.32629,2.32629 0 0 1 0.24635,-0.38413 0.8183,0.8183 0 0 1 0.32574,-0.2498 0.29906,0.29906 0 0 1 0.31533,0.0426 1.07517,1.07517 0 0 1 0.18261,0.17694 0.49407,0.49407 0 0 1 0.1027,0.27956 0.70675,0.70675 0 0 1 -0.08607,0.384 C 3.0452,2.3542 3.00837,2.41087 2.97765,2.47074 a 1.247,1.247 0 0 0 -0.05,0.12281 C 2.89086,2.68955 2.85517,2.78598 2.81804,2.88185 A 0.433,0.433 0 0 0 2.82983,3.24659 1.4578,1.4578 0 0 1 2.9375,3.56294 c 0.04269,0.18074 0.08345,0.362 0.1246,0.54319 a 0.32084,0.32084 0 0 1 0.00344,0.04245 z"
         id="path3"
         style="fill:#000000;fill-opacity:0.13782991;fill-rule:evenodd" /><path
         class="a05dfce7-c623-4fd4-843b-368d391571ce"
         d="M 3.16846,4.11143 3.12733,4.12885 C 3.12303,4.12221 3.11856,4.11823 3.11778,4.11368 3.09652,3.98813 3.07702,3.86232 3.05441,3.73701 A 3.05215,3.05215 0 0 0 2.95881,3.27538 0.87678,0.87678 0 0 1 2.92,3.12112 0.45442,0.45442 0 0 1 2.92881,2.926 C 2.95696,2.82919 2.98396,2.732 3.01224,2.63516 A 0.69963,0.69963 0 0 1 3.13466,2.39549 0.57527,0.57527 0 0 0 3.26966,2.09365 1.74523,1.74523 0 0 0 3.27196,1.85541 0.7561,0.7561 0 0 0 3.24684,1.72551 0.56925,0.56925 0 0 0 3.05189,1.422 C 2.99063,1.36869 2.92565,1.31941 2.86083,1.27032 A 0.20031,0.20031 0 0 0 2.63592,1.24932 1.43809,1.43809 0 0 0 2.45382,1.35856 1.7602,1.7602 0 0 0 2.19155,1.58241 0.71492,0.71492 0 0 0 2.05989,1.7673 1.78972,1.78972 0 0 1 1.80022,2.14794 C 1.70722,2.25919 1.61773,2.37347 1.52955,2.48873 a 0.97432,0.97432 0 0 0 -0.13919,0.2792 c -0.044,0.12724 -0.09189,0.25312 -0.138,0.3795 A 0.82333,0.82333 0 0 0 1.21964,3.58171 0.19755,0.19755 0 0 1 1.21701,3.6843 0.11877,0.11877 0 0 1 1.16814,3.60783 1.034,1.034 0 0 1 1.22565,3.07559 C 1.28182,2.93982 1.32914,2.80037 1.38185,2.66312 A 1.34845,1.34845 0 0 1 1.62776,2.26239 3.43714,3.43714 0 0 0 1.84024,1.991 C 1.91563,1.88385 1.98753,1.77371 2.05314,1.66042 A 1.06042,1.06042 0 0 1 2.26868,1.4132 C 2.33929,1.34887 2.41299,1.28789 2.48539,1.22548 c 0.0309,-0.02661 0.061,-0.054 0.09308,-0.07905 a 0.24917,0.24917 0 0 1 0.26608,-0.02846 0.82885,0.82885 0 0 1 0.15881,0.09574 1.06923,1.06923 0 0 1 0.24326,0.24275 0.4916,0.4916 0 0 1 0.08352,0.222 c 0.01536,0.112 0.02889,0.22454 0.036,0.33738 A 0.47939,0.47939 0 0 1 3.23868,2.39702 0.8153,0.8153 0 0 0 3.03398,2.83245 C 3.03031,2.8516 3.02754,2.87099 3.02235,2.88969 a 0.79226,0.79226 0 0 0 0.01374,0.36228 q 0.03962,0.21631 0.073,0.43395 c 0.02142,0.1395 0.03912,0.27957 0.05937,0.42551 z"
         id="path4"
         style="fill:#000000;fill-opacity:0.13782991;fill-rule:evenodd" /><path
         class="a05dfce7-c623-4fd4-843b-368d391571ce"
         d="M 2.81822,4.21394 2.75034,4.22731 A 0.23607,0.23607 0 0 1 2.73644,4.19573 C 2.71838,4.12742 2.7023,4.05841 2.68285,3.9905 A 2.74718,2.74718 0 0 0 2.54657,3.62777 0.913,0.913 0 0 0 2.39817,3.39577 1.03256,1.03256 0 0 1 2.23163,3.13859 1.35149,1.35149 0 0 0 2.11463,2.93659 C 2.04154,2.82985 1.96149,2.83268 1.87052,2.93059 a 0.30548,0.30548 0 0 0 -0.07071,0.147 C 1.7912,3.11741 1.78423,3.15767 1.77187,3.19638 A 0.6736,0.6736 0 0 0 1.75971,3.52191 0.74974,0.74974 0 0 1 1.75571,3.8796 1.02374,1.02374 0 0 1 1.70187,4.00614 0.16963,0.16963 0 0 1 1.67217,4.04 L 1.61322,4.007 C 1.62022,3.98666 1.62536,3.97025 1.63145,3.9541 A 0.701,0.701 0 0 0 1.6899,3.68118 0.47911,0.47911 0 0 0 1.6729,3.5607 0.82556,0.82556 0 0 1 1.66133,3.14094 1.0134,1.0134 0 0 1 1.7408,2.8831 a 0.486,0.486 0 0 1 0.123,-0.15175 0.22762,0.22762 0 0 1 0.29283,0.007 0.528,0.528 0 0 1 0.13957,0.2352 1.41709,1.41709 0 0 0 0.19427,0.39955 2.09865,2.09865 0 0 1 0.14014,0.25 2.07734,2.07734 0 0 1 0.17519,0.5217 c 0.00433,0.02067 0.00754,0.04146 0.01242,0.06914 z"
         id="path5-9"
         style="fill:#000000;fill-opacity:0.13782991;fill-rule:evenodd" /><path
         class="a05dfce7-c623-4fd4-843b-368d391571ce"
         d="M 3.43177,3.973 3.37929,4.00491 3.36762,3.99462 C 3.35137,3.86862 3.33322,3.74293 3.32024,3.61655 3.30956,3.51285 3.30482,3.40862 3.29785,3.30455 3.29398,3.24636 3.28955,3.18805 3.28779,3.12987 A 0.83972,0.83972 0 0 1 3.41531,2.6705 C 3.46316,2.58984 3.51672,2.51259 3.56615,2.43279 3.59684,2.38322 3.62743,2.33315 3.65315,2.28087 A 0.34648,0.34648 0 0 0 3.65891,1.97805 0.9787,0.9787 0 0 1 3.5908,1.7333 1.36645,1.36645 0 0 1 3.57688,1.50572 0.6787,0.6787 0 0 0 3.49452,1.16985 C 3.46793,1.12003 3.44029,1.07078 3.40966,1.01494 a 0.1461,0.1461 0 0 1 0.03092,0.0107 C 3.48017,1.05241 3.51974,1.07927 3.558,1.10785 A 0.091,0.091 0 0 1 3.58793,1.14406 0.94126,0.94126 0 0 1 3.67182,1.51942 C 3.67031,1.56333 3.66916,1.60717 3.66949,1.65108 A 1.57786,1.57786 0 0 0 3.73292,1.97846 1.33645,1.33645 0 0 1 3.7583,2.12981 0.45543,0.45543 0 0 1 3.68253,2.40181 C 3.60144,2.54512 3.5172,2.68659 3.4334,2.82847 A 0.52263,0.52263 0 0 0 3.3644,3.07659 2.48775,2.48775 0 0 0 3.3659,3.37411 C 3.37697,3.51664 3.39784,3.6584 3.41408,3.80052 3.42052,3.85666 3.42562,3.91276 3.43177,3.973 Z"
         id="path6"
         style="fill:#000000;fill-opacity:0.13782991;fill-rule:evenodd" /><path
         class="a05dfce7-c623-4fd4-843b-368d391571ce"
         d="M 2.63157,4.24485 H 2.5077 A 0.28787,0.28787 0 0 1 2.47975,4.12943 0.68292,0.68292 0 0 0 2.43015,3.85966 0.28079,0.28079 0 0 0 2.39155,3.79717 0.63385,0.63385 0 0 0 2.23684,3.65317 0.256,0.256 0 0 0 2.2084,3.63869 C 2.13371,3.60683 2.10706,3.61704 2.0784,3.69278 2.04898,3.77052 2.02563,3.85069 1.9926,3.92678 1.96252,3.996 1.92293,4.06136 1.8846,4.13378 L 1.7804,4.0951 A 0.18287,0.18287 0 0 1 1.83325,4.00252 0.3363,0.3363 0 0 0 1.90372,3.80586 2.17761,2.17761 0 0 1 1.97281,3.46839 a 0.11108,0.11108 0 0 1 0.1437,-0.06655 0.484,0.484 0 0 1 0.17792,0.09259 0.71274,0.71274 0 0 1 0.219,0.28892 0.34455,0.34455 0 0 1 0.01781,0.05568 q 0.044,0.175 0.0873,0.35022 z"
         id="path7"
         style="fill:#000000;fill-opacity:0.13782991;fill-rule:evenodd" /><path
         class="a05dfce7-c623-4fd4-843b-368d391571ce"
         d="m 3.74386,1.27169 a 0.44275,0.44275 0 0 1 0.05675,0.0595 0.12191,0.12191 0 0 1 0.02085,0.06331 3.13442,3.13442 0 0 0 0.03941,0.40628 c 0.01015,0.08061 0.0172,0.16168 0.02581,0.24246 0.00274,0.02636 0.00724,0.05257 0.00884,0.079 A 0.71426,0.71426 0 0 1 3.78021,2.55103 c -0.06337,0.10218 -0.125,0.20564 -0.183,0.31118 a 0.75371,0.75371 0 0 0 -0.078,0.49862 C 3.5286,3.43455 3.53583,3.50848 3.54496,3.58217 3.55322,3.64872 3.56327,3.71511 3.57151,3.78182 3.57516,3.81118 3.57629,3.84091 3.57865,3.87117 L 3.508,3.92256 C 3.50167,3.87442 3.49552,3.83387 3.49111,3.79311 3.47787,3.67005 3.46275,3.54695 3.45332,3.42366 A 0.97085,0.97085 0 0 1 3.46058,3.04408 1.6564,1.6564 0 0 1 3.56504,2.78908 C 3.62214,2.67943 3.68822,2.57408 3.75325,2.46875 A 0.52852,0.52852 0 0 0 3.83171,2.2023 1.8732,1.8732 0 0 0 3.78371,1.824 C 3.77081,1.7492 3.75853,1.67412 3.74812,1.59888 A 0.25961,0.25961 0 0 1 3.74933,1.52462 0.5347,0.5347 0 0 0 3.74047,1.30857 0.19306,0.19306 0 0 1 3.73692,1.28257 Z"
         id="path8"
         style="fill:#000000;fill-opacity:0.13782991;fill-rule:evenodd" /><path
         class="a05dfce7-c623-4fd4-843b-368d391571ce"
         d="M 0.988,3.36928 A 0.12721,0.12721 0 0 1 0.96421,3.23749 C 0.9907,3.14942 1.02131,3.06249 1.05092,2.97543 A 3.574,3.574 0 0 1 1.30068,2.395 C 1.35887,2.28991 1.43036,2.19219 1.49511,2.09071 1.54651,2.01005 1.60004,1.93059 1.64705,1.84747 1.73253,1.69629 1.81179,1.54162 1.89783,1.3908 1.93812,1.32019 1.98999,1.25631 2.03278,1.18701 2.06811,1.12989 2.09947,1.07001 2.12924,1.00966 a 0.31343,0.31343 0 0 0 0.03135,-0.16 C 2.15936,0.829 2.16041,0.80806 2.16041,0.785 A 0.25155,0.25155 0 0 1 2.26679,0.77259 C 2.25465,0.85972 2.24711,0.94407 2.22997,1.02659 A 0.35949,0.35949 0 0 1 2.14511,1.17236 3.009,3.009 0 0 0 1.79623,1.69796 2.90658,2.90658 0 0 1 1.50714,2.16209 2.02586,2.02586 0 0 0 1.27655,2.51821 C 1.24375,2.58665 1.22009,2.65927 1.19182,2.72988 1.16355,2.80049 1.13682,2.87208 1.10542,2.9413 A 1.51414,1.51414 0 0 0 1.00666,3.23813 C 0.998,3.27735 0.99512,3.318 0.988,3.36928 Z"
         id="path9"
         style="fill:#000000;fill-opacity:0.13782991;fill-rule:evenodd" /><path
         class="a05dfce7-c623-4fd4-843b-368d391571ce"
         d="M 3.657,3.8009 C 3.63941,3.70335 3.62428,3.61113 3.60591,3.51969 A 0.89238,0.89238 0 0 1 3.5851,3.35711 1.479,1.479 0 0 1 3.61177,3.09345 a 0.73342,0.73342 0 0 1 0.03511,-0.149 0.99581,0.99581 0 0 1 0.10933,-0.18767 1.15362,1.15362 0 0 0 0.1989,-0.498 1.138,1.138 0 0 0 0,-0.16443 C 3.95442,2.0678 3.95,2.0416 3.9478,2.01523 Q 3.93352,1.8381 3.91959,1.66103 C 3.91528,1.60486 3.9121,1.54872 3.90837,1.49279 L 3.91907,1.4907 a 0.30359,0.30359 0 0 1 0.094,0.20679 c 0.00166,0.12555 0.01209,0.25135 0.00877,0.37675 a 1.31392,1.31392 0 0 1 -0.14757,0.608 1.652,1.652 0 0 1 -0.09911,0.15065 0.66318,0.66318 0 0 0 -0.11933,0.34177 1.10232,1.10232 0 0 0 0.013,0.20486 c 0.013,0.10321 0.03072,0.20613 0.04685,0.30906 A 0.09606,0.09606 0 0 1 3.657,3.8009 Z"
         id="path10"
         style="fill:#000000;fill-opacity:0.13782991;fill-rule:evenodd" /><path
         class="a05dfce7-c623-4fd4-843b-368d391571ce"
         d="M 1.97345,0.82962 2.0155,0.815 2.04836,0.80519 A 0.09909,0.09909 0 0 1 2.05072,0.87744 0.7934,0.7934 0 0 1 1.95504,1.12408 2.70622,2.70622 0 0 0 1.76656,1.51063 2.139,2.139 0 0 1 1.55126,1.90686 C 1.44793,2.06357 1.34526,2.22103 1.24748,2.38132 a 1.81662,1.81662 0 0 0 -0.09991,0.211 C 1.10005,2.69913 1.05386,2.80661 1.00757,2.91379 A 1.346,1.346 0 0 0 0.91678,3.19107 0.20938,0.20938 0 0 1 0.90819,3.21547 0.06976,0.06976 0 0 1 0.88053,3.14867 0.4259,0.4259 0 0 1 0.90247,3.06162 c 0.02532,-0.068 0.05308,-0.13515 0.0801,-0.20253 0.04162,-0.10353 0.081,-0.208 0.12566,-0.31032 A 2.35549,2.35549 0 0 1 1.43745,2.00464 1.022,1.022 0 0 0 1.54362,1.8339 C 1.5855,1.7539 1.6214,1.6709 1.65978,1.58902 1.74116,1.41594 1.82347,1.24331 1.90323,1.06929 A 0.67517,0.67517 0 0 0 1.97345,0.82962 Z"
         id="path11"
         style="fill:#000000;fill-opacity:0.13782991;fill-rule:evenodd" /><path
         class="a05dfce7-c623-4fd4-843b-368d391571ce"
         d="M 1.88,0.86948 A 0.0703,0.0703 0 0 1 1.881,0.89416 1.39953,1.39953 0 0 1 1.82032,1.06392 4.19931,4.19931 0 0 0 1.64041,1.50636 1.75123,1.75123 0 0 1 1.45621,1.88205 C 1.3854,1.99 1.31006,2.0949 1.24,2.20336 A 3.18956,3.18956 0 0 0 0.94932,2.78111 C 0.91418,2.87178 0.88111,2.96326 0.84744,3.05326 A 0.08635,0.08635 0 0 1 0.83777,2.95579 C 0.86177,2.88727 0.88787,2.81958 0.91319,2.75143 A 3.54945,3.54945 0 0 1 1.3991,1.88332 1.15976,1.15976 0 0 0 1.584,1.49693 2.3293,2.3293 0 0 1 1.76659,1.02809 0.3736,0.3736 0 0 0 1.79881,0.93894 0.07462,0.07462 0 0 1 1.88,0.86948 Z"
         id="path12"
         style="fill:#000000;fill-opacity:0.13782991;fill-rule:evenodd" /><path
         class="a05dfce7-c623-4fd4-843b-368d391571ce"
         d="m 4.09968,1.82181 a 0.27816,0.27816 0 0 1 0.05054,0.20314 c -0.013,0.08918 -0.026,0.17841 -0.04089,0.26735 a 2.5471,2.5471 0 0 1 -0.096,0.41829 1.08457,1.08457 0 0 1 -0.11637,0.244 0.46208,0.46208 0 0 0 -0.07639,0.24533 1.92961,1.92961 0 0 0 0.01989,0.29626 c 0.00418,0.03317 0.00605,0.0668 0.00957,0.10711 l -0.05537,0.066 C 3.78793,3.63309 3.78237,3.60783 3.77858,3.58236 3.76884,3.51598 3.75873,3.44951 3.7508,3.38287 A 0.75041,0.75041 0 0 1 3.75607,3.08793 0.62091,0.62091 0 0 1 3.84107,2.91149 1.55789,1.55789 0 0 0 4.06307,2.2744 C 4.07952,2.16849 4.08118,2.0604 4.08954,1.95329 Z"
         id="path13"
         style="fill:#000000;fill-opacity:0.13782991;fill-rule:evenodd" /><path
         class="a05dfce7-c623-4fd4-843b-368d391571ce"
         d="M 1.68894,0.96281 1.68783,0.98 A 1.51985,1.51985 0 0 0 1.55356,1.37622 1.85533,1.85533 0 0 1 1.48227,1.62041 1.14586,1.14586 0 0 1 1.37673,1.81 C 1.30142,1.92777 1.22306,2.04365 1.14518,2.15973 A 1.65766,1.65766 0 0 0 0.98841,2.43024 C 0.94134,2.54107 0.897,2.653 0.85189,2.76455 0.83489,2.80662 0.81911,2.84914 0.79907,2.90109 a 0.13854,0.13854 0 0 1 -0.00988,-0.11 C 0.82854,2.69629 0.86583,2.60066 0.90784,2.50709 0.9419,2.43131 0.97849,2.35623 1.01964,2.28399 1.06339,2.20731 1.11315,2.13399 1.16143,2.0599 Q 1.22817,1.95768 1.29743,1.85717 A 1.30033,1.30033 0 0 0 1.41327,1.64891 1.55376,1.55376 0 0 0 1.50035,1.37069 C 1.51968,1.28979 1.53701,1.20839 1.55675,1.12753 A 0.22892,0.22892 0 0 1 1.63727,0.9879 0.08,0.08 0 0 1 1.68894,0.96281 Z"
         id="path14"
         style="fill:#000000;fill-opacity:0.13782991;fill-rule:evenodd" /><path
         class="a05dfce7-c623-4fd4-843b-368d391571ce"
         d="m 1.47291,1.09185 c 0.00235,0.0073 0.00592,0.01251 0.0051,0.017 C 1.45269,1.24967 1.4311,1.39146 1.40001,1.53104 A 0.91911,0.91911 0 0 1 1.23427,1.86096 4.51363,4.51363 0 0 0 0.94908,2.2954 2.15571,2.15571 0 0 0 0.78822,2.67035 0.1241,0.1241 0 0 1 0.76745,2.71035 0.15488,0.15488 0 0 1 0.76411,2.59283 Q 0.81946,2.46939 0.88021,2.34824 C 0.92395,2.26131 0.96752,2.17424 1.0168,2.09036 1.06252,2.0127 1.11464,1.93868 1.1658,1.86436 A 1.41626,1.41626 0 0 0 1.35537,1.50369 0.77824,0.77824 0 0 0 1.39383,1.29075 1.09262,1.09262 0 0 1 1.40603,1.16421 0.08021,0.08021 0 0 1 1.47291,1.09185 Z"
         id="path15"
         style="fill:#000000;fill-opacity:0.13782991;fill-rule:evenodd" /><path
         class="a05dfce7-c623-4fd4-843b-368d391571ce"
         d="m 3.93377,3.48836 a 0.85164,0.85164 0 0 1 0.069,-0.56213 1.43653,1.43653 0 0 0 0.1239,-0.40484 C 4.14651,2.40469 4.16355,2.2875 4.18227,2.17064 4.18495,2.15342 4.19012,2.13656 4.19621,2.11106 A 0.20366,0.20366 0 0 1 4.2208,2.23944 C 4.19697,2.40568 4.17017,2.57183 4.13624,2.73609 a 1.03967,1.03967 0 0 1 -0.07655,0.21458 0.70148,0.70148 0 0 0 -0.069,0.3029 0.62507,0.62507 0 0 0 8.6e-4,0.06905 0.19718,0.19718 0 0 1 -0.05778,0.16574 z"
         id="path16"
         style="fill:#000000;fill-opacity:0.13782991;fill-rule:evenodd" /><path
         class="a05dfce7-c623-4fd4-843b-368d391571ce"
         d="M 1.34036,1.19005 A 1.03639,1.03639 0 0 1 1.33954,1.31505 1.07938,1.07938 0 0 1 1.24939,1.61364 2.03638,2.03638 0 0 1 1.03918,1.95751 2.09946,2.09946 0 0 0 0.84024,2.308 C 0.81566,2.36254 0.78919,2.41634 0.75953,2.47916 A 0.24545,0.24545 0 0 1 0.77515,2.33437 4.26184,4.26184 0 0 1 1.06934,1.81197 C 1.10694,1.75432 1.14501,1.69646 1.17683,1.63545 A 0.73244,0.73244 0 0 0 1.27623,1.28707 0.10506,0.10506 0 0 1 1.34036,1.19005 Z"
         id="path17"
         style="fill:#000000;fill-opacity:0.13782991;fill-rule:evenodd" /><path
         class="a05dfce7-c623-4fd4-843b-368d391571ce"
         d="M 1.21176,1.31131 A 0.37526,0.37526 0 0 1 1.20929,1.34977 1.04827,1.04827 0 0 1 1.05437,1.7305 C 0.99116,1.82862 0.92737,1.92625 0.8653,2.0252 0.83737,2.06985 0.81308,2.11684 0.78782,2.16153 A 0.5,0.5 0 0 1 0.83356,1.98112 Q 0.96817,1.74031 1.10216,1.49927 A 0.44547,0.44547 0 0 0 1.13828,1.41681 0.31154,0.31154 0 0 1 1.21176,1.31131 Z"
         id="path18"
         style="fill:#000000;fill-opacity:0.13782991;fill-rule:evenodd" /><path
         class="a05dfce7-c623-4fd4-843b-368d391571ce"
         d="M 4.23915,2.49367 A 0.74968,0.74968 0 0 1 4.2221,2.77283 C 4.21556,2.80383 4.20442,2.83383 4.1961,2.86431 4.1807,2.92057 4.16727,2.97731 4.15024,3.03305 4.12953,3.1005 4.10614,3.16713 4.08332,3.23385 A 0.21715,0.21715 0 0 1 4.0621,3.26694 0.20345,0.20345 0 0 1 4.0581,3.21752 1.85472,1.85472 0 0 1 4.10952,3.00668 2.483,2.483 0 0 0 4.22376,2.56006 L 4.22985,2.52881 Z"
         id="path19"
         style="fill:#000000;fill-opacity:0.13782991;fill-rule:evenodd" /><path
         class="a05dfce7-c623-4fd4-843b-368d391571ce"
         d="M 2.04826,4.18577 A 0.41016,0.41016 0 0 1 2.18737,4.07141 C 2.25869,4.09752 2.26058,4.17474 2.29972,4.22747 A 0.78959,0.78959 0 0 1 2.04826,4.18577 Z"
         id="path20"
         style="fill:#000000;fill-opacity:0.13782991;fill-rule:evenodd" /></g></g><circle
     style="fill:#ffffff;fill-opacity:1;stroke:#383838;stroke-width:0.145594"
     id="path1-0"
     cx="165"
     cy="165"
     r="7.9272027" /></svg>
